<svg xmlns="http://www.w3.org/2000/svg" xmlns:xlink="http://www.w3.org/1999/xlink" width="70" height="70" viewBox="0 0 70 70"><defs><clipPath id="a"><rect width="70" height="70" transform="translate(-21082 -1648)" fill="#fff"/></clipPath></defs><g transform="translate(21082 1648)" clip-path="url(#a)"><g transform="translate(-21082.408 -1647.792)"><path d="M15.938,68.446a.986.986,0,0,1-.382-.076,1,1,0,0,1-.618-.924V48.512a1,1,0,0,1,2,0v16.52l2.925-2.924a1,1,0,0,1,1.414,0L24.2,65.032V48.512a1,1,0,0,1,2,0V67.446a1,1,0,0,1-1.707.707L20.57,64.23l-3.924,3.923A1,1,0,0,1,15.938,68.446Z" fill="#679ab4"/><path d="M12.127,57.231H4.409a1,1,0,0,1-1-1V1.792a1,1,0,0,1,1-1H50.968a1,1,0,0,1,1,1V35.571a1,1,0,0,1-2,0V2.792H5.409V55.231h6.718a1,1,0,1,1,0,2Z" fill="#679ab4"/><rect width="28.035" height="2" transform="translate(13.671 12.008)" fill="#679ab4"/><rect width="28.035" height="2" transform="translate(13.671 19.726)" fill="#679ab4"/><rect width="18.773" height="2" transform="translate(22.933 27.444)" fill="#679ab4"/><path d="M20.567,51.056a8.719,8.719,0,1,1,8.721-8.718,8.653,8.653,0,0,1-8.721,8.718Zm0-15.437a6.719,6.719,0,0,0,0,13.437h0a6.719,6.719,0,1,0,0-13.437Z" fill="#679ab4"/><path d="M31.728,63.939a1.018,1.018,0,0,1-.353-.064,1,1,0,0,1-.583-1.288l2.826-7.519a1,1,0,0,1,.523-.559,1.009,1.009,0,0,1,.765-.025l7.517,2.827a1,1,0,1,1-.7,1.871l-6.581-2.474L32.664,63.29A1,1,0,0,1,31.728,63.939Z" fill="#e77522"/><path d="M50.453,69.209a16.415,16.415,0,0,1-1.874-.107,17.26,17.26,0,0,1-15-13.472,1,1,0,1,1,1.956-.418,15.263,15.263,0,0,0,13.272,11.9A15.067,15.067,0,1,0,36.079,47.472a1,1,0,0,1-1.9-.617A17.062,17.062,0,1,1,50.453,69.209Z" fill="#e77522"/></g></g></svg>