<svg xmlns="http://www.w3.org/2000/svg" xmlns:xlink="http://www.w3.org/1999/xlink" width="70" height="70" viewBox="0 0 70 70"><defs><clipPath id="a"><rect width="70" height="70" transform="translate(-21082 -1540)" fill="#fff"/></clipPath></defs><g transform="translate(21082 1540)" clip-path="url(#a)"><g transform="translate(-21081.934 -1634.082)"><path d="M42.266,159.787a.968.968,0,0,1-.159-1.922c8.978-1.5,15.377-9.24,17.058-16.116a.967.967,0,1,1,1.878.459c-1.831,7.492-8.814,15.932-18.617,17.566A1.1,1.1,0,0,1,42.266,159.787Z" fill="#679ab4"/><path d="M10.116,120.328a.966.966,0,0,1-.967-.967v-2.028c0-12.269,11.423-22.251,25.463-22.251s25.463,9.982,25.463,22.251v1.681a.967.967,0,1,1-1.934,0v-1.681c0-11.2-10.556-20.317-23.529-20.317s-23.529,9.114-23.529,20.317v2.028A.966.966,0,0,1,10.116,120.328Z" fill="#679ab4"/><path d="M40.267,162.848H28.957a2.97,2.97,0,0,1-2.967-2.967v-3.654a2.97,2.97,0,0,1,2.967-2.967h11.31a2.97,2.97,0,0,1,2.967,2.967v3.654A2.97,2.97,0,0,1,40.267,162.848Zm-11.31-7.655a1.035,1.035,0,0,0-1.033,1.034v3.654a1.035,1.035,0,0,0,1.033,1.033h11.31a1.034,1.034,0,0,0,1.032-1.033v-3.654a1.034,1.034,0,0,0-1.032-1.034Z" fill="#e77522"/><path d="M12.56,143.606a4.61,4.61,0,0,1-1.609-.291L7.16,141.9a4.617,4.617,0,0,1-2.908-3.466L2.009,126.32a4.61,4.61,0,0,1,1.475-4.275l3.033-2.679a4.591,4.591,0,0,1,7.553,2.605l3,16.207a4.593,4.593,0,0,1-4.511,5.428Zm-3-23.456a2.648,2.648,0,0,0-1.758.666l-3.033,2.678h0a2.662,2.662,0,0,0-.853,2.473l2.242,12.114a2.67,2.67,0,0,0,1.683,2.005l3.79,1.415a2.656,2.656,0,0,0,3.542-2.973l-3-16.207a2.655,2.655,0,0,0-2.612-2.172Zm-5.431,2.62h0Z" fill="#e77522"/><path d="M57.043,143.607a4.595,4.595,0,0,1-4.511-5.43l3-16.206a4.59,4.59,0,0,1,7.553-2.605l3.033,2.679a4.615,4.615,0,0,1,1.475,4.275l-2.243,12.114a4.617,4.617,0,0,1-2.909,3.466l-3.79,1.415A4.593,4.593,0,0,1,57.043,143.607Zm3-23.457a2.655,2.655,0,0,0-2.612,2.172l-3,16.207a2.656,2.656,0,0,0,3.541,2.973l3.791-1.415a2.667,2.667,0,0,0,1.682-2.005l2.243-12.113a2.667,2.667,0,0,0-.853-2.474h0l-3.032-2.678A2.651,2.651,0,0,0,60.047,120.15Z" fill="#e77522"/><path d="M26.453,119.074a.437.437,0,0,0-.007.537,4,4,0,0,0,3.158,1.323,5.659,5.659,0,0,0,2.779-.957A5.359,5.359,0,0,1,35,119.065a4.966,4.966,0,0,1,2.559.965,5.441,5.441,0,0,0,2.838,1.045,3.733,3.733,0,0,0,3.181-1.485.436.436,0,0,0-.027-.507,11,11,0,0,0-17.1-.009Z" fill="#7a9daf"/><path d="M28.2,129.886m-3.507-7.846a11,11,0,0,0,8.543,14.812.431.431,0,0,0,.468-.26,4,4,0,0,0-.435-3.4,5.7,5.7,0,0,0-2.219-1.925,5.334,5.334,0,0,1-2.1-1.81h0a4.95,4.95,0,0,1-.443-2.7,5.439,5.439,0,0,0-.514-2.983,3.733,3.733,0,0,0-2.88-2.012A.434.434,0,0,0,24.691,122.04Z" fill="#7a9daf"/><path d="M44.853,121.8a4.021,4.021,0,0,0-2.73,2.077,5.7,5.7,0,0,0-.56,2.887,5.3,5.3,0,0,1-.517,2.719,4.915,4.915,0,0,1-2.115,1.733,5.442,5.442,0,0,0-2.325,1.936,4.175,4.175,0,0,0-.6,2.1,3.2,3.2,0,0,0,.293,1.4.434.434,0,0,0,.455.225,11.008,11.008,0,0,0,8.556-14.8A.435.435,0,0,0,44.853,121.8Z" fill="#7a9daf"/></g></g></svg>