<svg xmlns="http://www.w3.org/2000/svg" width="197.544" height="60" viewBox="0 0 197.544 60">
  <g id="Logo" transform="translate(-158.559 -406.699)">
    <path id="Path_1587" data-name="Path 1587" d="M165.159,416.546a1.047,1.047,0,0,0-.019,1.294,9.652,9.652,0,0,0,7.627,3.19c2.561,0,4.672-1.176,6.707-2.317s3.966-2.2,6.32-2.2c2.317,0,4.188,1.13,6.176,2.328,2.055,1.24,4.18,2.521,6.854,2.521,5.351,0,7.591-3.449,7.681-3.595a1.042,1.042,0,0,0-.07-1.218,26.552,26.552,0,0,0-41.276,0" transform="translate(-0.581)" fill="#819ab2"/>
    <path id="Path_1588" data-name="Path 1588" d="M160.324,425.347A26.559,26.559,0,0,0,180.964,461.1a1.048,1.048,0,0,0,1.13-.631,9.658,9.658,0,0,0-1.053-8.215c-1.284-2.211-3.358-3.448-5.362-4.648s-3.888-2.324-5.066-4.367c-1.162-2-1.119-4.193-1.071-6.507.045-2.4.092-4.886-1.247-7.2-2.676-4.642-6.786-4.846-6.957-4.851a1.047,1.047,0,0,0-1.015.673m8.473,18.935" transform="translate(0 -1.641)" fill="#819ab2"/>
    <path id="Path_1589" data-name="Path 1589" d="M211.925,424.75a9.726,9.726,0,0,0-6.588,5.017c-1.279,2.223-1.313,4.64-1.348,6.975s-.068,4.534-1.246,6.569c-1.156,2.009-3.075,3.063-5.1,4.184-2.1,1.156-4.273,2.357-5.612,4.675a10.052,10.052,0,0,0-1.441,5.074,7.743,7.743,0,0,0,.711,3.382,1.046,1.046,0,0,0,1.095.543,26.575,26.575,0,0,0,20.643-35.749,1.051,1.051,0,0,0-1.111-.671" transform="translate(-2.925 -1.648)" fill="#819ab2"/>
    <path id="Path_1590" data-name="Path 1590" d="M294.112,447.294h-1.338a2.768,2.768,0,0,0-1.21.314,1.882,1.882,0,0,0-.672.967c0-.009-3.267,8.759-3.922,10.513l-4.957-11.795h-2.6s-4.66,11.172-4.917,11.792c-.232-.627-4.328-11.792-4.328-11.792h-2.974l5.878,15.975h2.641s4.759-11.357,5-11.939l5,11.939h2.642l5.956-15.975h-.2" transform="translate(-9.92 -3.707)" fill="#61676e"/>
    <path id="Path_1591" data-name="Path 1591" d="M311.1,447.679a1.379,1.379,0,0,0-.4.972v9.126c0,2.186-2.277,3.367-4.42,3.367-3.929,0-4.735-1.886-4.735-4.722v-9.128h-2.8v9.128c0,4.916,2.322,7.108,7.539,7.108a7.877,7.877,0,0,0,4.42-1.317v1.056h2.774V447.294h-1.454a1.349,1.349,0,0,0-.923.385" transform="translate(-12.801 -3.707)" fill="#61676e"/>
    <path id="Path_1592" data-name="Path 1592" d="M320.5,448.615v-1.347h-2.806v15.975H320.5v-9.834a4.134,4.134,0,0,1,4.431-3.985c3.924,0,4.725,1.826,4.725,4.566v9.252h2.771V453.83c0-4.524-2.522-6.821-7.5-6.821a6.843,6.843,0,0,0-4.431,1.606" transform="translate(-14.532 -3.681)" fill="#61676e"/>
    <path id="Path_1593" data-name="Path 1593" d="M336.7,442.97a1.5,1.5,0,0,0,1.539,1.408,1.415,1.415,0,1,0,0-2.818,1.5,1.5,0,0,0-1.539,1.41" transform="translate(-16.267 -3.183)" fill="#61676e"/>
    <path id="Path_1594" data-name="Path 1594" d="M337.213,447.642a1.247,1.247,0,0,0-.385.95v14.677h2.846V447.294H338.2a1.469,1.469,0,0,0-.983.348" transform="translate(-16.279 -3.707)" fill="#61676e"/>
    <path id="Path_1595" data-name="Path 1595" d="M355.948,447.562a1.654,1.654,0,0,0-.715.931c.005-.012-4.05,9.455-4.792,11.2-.247-.578-5.232-12.4-5.232-12.4h-2.979s6.656,15.727,6.7,15.835c-.044.106-1.337,3.026-1.337,3.026a2.64,2.64,0,0,1-2.928,1.835l-.892-.039-.041,2.455h1.237a5.284,5.284,0,0,0,5.259-3.36l8.533-19.751h-1.683a2.244,2.244,0,0,0-1.131.268m-5.719,19.483" transform="translate(-16.772 -3.707)" fill="#61676e"/>
    <path id="Path_1596" data-name="Path 1596" d="M252.379,441.7h-19.21v2.493h8.214v18.585h2.927V444.193h8.208V441.7h-.138" transform="translate(-6.813 -3.196)" fill="#61676e"/>
    <path id="Path_1597" data-name="Path 1597" d="M371.8,463.268h2.535V451.674c0-3.091-3.228-4.71-6.409-4.71-3.595,0-5.973,1.359-6.881,3.922l-.053.137,2.566.825.048-.128c.7-1.931,2.691-2.335,4.244-2.335,1.788,0,3.713.713,3.713,2.289v1.577a2.9,2.9,0,0,1-1.788.492H366.6c-3.234-.046-6.248,1.679-6.248,4.877,0,3.052,3.18,4.877,6.248,4.877a10.645,10.645,0,0,0,5.207-1.246c-.01-.007-.01.974-.01,1.019m-.236-4.419a1.722,1.722,0,0,1-.535,1.218c-1.166.939-2.525,1.036-4.425,1.036-1.653,0-3.443-.952-3.443-2.484,0-1.6,1.771-2.588,3.41-2.588H370a4.237,4.237,0,0,0,1.558-.3Z" transform="translate(-18.427 -3.677)" fill="#61676e"/>
    <path id="Path_1598" data-name="Path 1598" d="M262.525,463.268h2.534V451.674c0-3.091-3.227-4.71-6.411-4.71-3.594,0-5.971,1.359-6.879,3.922l-.054.137,2.565.825.049-.128c.694-1.931,2.691-2.335,4.244-2.335,1.787,0,3.713.713,3.713,2.289v1.577a2.905,2.905,0,0,1-1.789.492h-3.172c-3.234-.046-6.248,1.679-6.248,4.877,0,3.052,3.18,4.877,6.248,4.877a10.64,10.64,0,0,0,5.207-1.246c-.007-.007-.007.974-.007,1.019m-.238-4.419a1.713,1.713,0,0,1-.537,1.218c-1.163.939-2.525,1.036-4.424,1.036-1.651,0-3.442-.952-3.442-2.484,0-1.6,1.771-2.588,3.411-2.588h3.433a4.235,4.235,0,0,0,1.559-.3Z" transform="translate(-8.448 -3.677)" fill="#61676e"/>
    <path id="Path_1599" data-name="Path 1599" d="M238.674,409.716a1.415,1.415,0,1,0,0-2.818,1.414,1.414,0,1,0,0,2.818m4.324,0a1.415,1.415,0,1,0,0-2.818,1.414,1.414,0,1,0,0,2.818Zm17.538,20.637a1.414,1.414,0,1,0,0,2.817,1.414,1.414,0,1,0,0-2.817Zm80.4-18.366a1.414,1.414,0,1,0,0-2.817,1.414,1.414,0,1,0,0,2.817Zm13.5-4.558a1.241,1.241,0,0,0-.387.95l0,14.919c-.056,1.392-1.073,2.2-2.611,2.2v.006l-8.575,0a2.325,2.325,0,0,1-2.632-2.339h-.007v-8.734h-1.477a1.464,1.464,0,0,0-.983.347,1.242,1.242,0,0,0-.384.95l-.005,7.412c0,1.433-1.366,2.294-2.885,2.333H322.832a1.409,1.409,0,0,1-1.014-.413l6.248-6.426s-2-4.32-8.722-4.32c-7.129,0-8.177,4.733-6.328,6.54,1.752,1.711,4.685,4.054,4.714,4.082-.617.629-2.337.454-5.323.454,0,0-6.815.011-7.694.011-2.5,0-2.392-2.661-2.392-2.661V407.016h-1.477a1.456,1.456,0,0,0-.983.348,1.234,1.234,0,0,0-.387.948v15.576s.1,4.173,4.217,4.173h12.647a5.426,5.426,0,0,0,3.607-1.208,4.76,4.76,0,0,0,3.487,1.208l11.024-.013c2.648,0,3.345-.337,4.344-1.26l0,.007a5.616,5.616,0,0,0,3.9,1.268l8.9-.006c3.417,0,5.279-1.86,5.279-4.915V407.083h-1.461A1.457,1.457,0,0,0,354.441,407.429Zm-34.7,16.164s-3.519-2.839-4.252-3.514c-1.168-1.078-1.18-3.689,4.119-3.689a6.553,6.553,0,0,1,5.113,2.183Zm40.2-16.54v20.985h2.977V407.053Zm-69.474,7.335a6.59,6.59,0,0,0-4.268,1.49,7.443,7.443,0,0,0-.84,10.208,5.651,5.651,0,0,0,4.482,1.945h3.318A6.2,6.2,0,0,1,290.4,431.1a15.284,15.284,0,0,1-5.1,1.73l1.147,2.46a12.89,12.89,0,0,0,7.448-3.546c2.005-2.016,2.644-4.046,2.644-7.246v-4.217C296.537,416.369,294.6,414.388,290.465,414.388Zm-.41,11.031c-2.133,0-3.62-1.737-3.62-4.228a4.954,4.954,0,0,1,1.259-3.514,3.526,3.526,0,0,1,2.708-1.188c1.924,0,3.212.9,3.248,2.992,0,0,.071,5.24.082,5.937ZM279.426,409.17a1.414,1.414,0,1,0,0,2.817,1.414,1.414,0,1,0,0-2.817Zm-1.05,5.586a1.241,1.241,0,0,0-.385.95l-.005,7.413c0,1.467-1.015,2.3-2.594,2.3l-.018,0-8.666.02c-1.581,0-2.6-.836-2.6-2.3h-.006l0-11.055h-2.84l-.007,11.162c-.056,1.391-1.074,2.2-2.611,2.2l-8.675.026c-2.075,0-2.553-.8-2.611-2.193l.009-11.191h-2.81l-.007,1.268c-.266.439-1.064.515-1.859.515h-3.259c-4.549.038-6.324,2.521-6.267,5.588.056,3.135,2.625,4.976,5.965,5.212,3.846.273,5.428-.978,5.428-.978v.043s-.151,4.327,3.878,4.327h10.341c2.232,0,3.134-.522,4-1.29a5.341,5.341,0,0,0,3.8,1.268l8.947.009c3.415,0,5.312-1.844,5.312-4.9l0-8.74h-1.478A1.464,1.464,0,0,0,278.376,414.755Zm-33.841,4.956a2.4,2.4,0,0,1-.551,1.439c-1.079.993-3.139,1.233-4.805,1.076-1.69-.158-3.277-1.054-3.277-2.628,0-1.64.5-3.312,3.5-3.379h3.526c.487,0,1.3-.024,1.6-.381Zm20.325,10.642a1.414,1.414,0,1,0,0,2.817,1.414,1.414,0,1,0,0-2.817Z" transform="translate(-6.813 -0.018)" fill="#61676e"/>
    <path id="Path_1600" data-name="Path 1600" d="M346.852,412.215a1.414,1.414,0,1,0,0-2.817,1.414,1.414,0,1,0,0,2.817" transform="translate(-17.054 -0.246)" fill="#61676e"/>
  </g>
</svg>
