<svg xmlns="http://www.w3.org/2000/svg" xmlns:xlink="http://www.w3.org/1999/xlink" width="46" height="46" viewBox="0 0 46 46"><defs><clipPath id="a"><rect width="46" height="46" transform="translate(-2534 4725)" fill="#fff" stroke="#e86319" stroke-width="1"/></clipPath></defs><g transform="translate(2534 -4725)" clip-path="url(#a)"><g transform="translate(-2532.05 4725.767)"><path d="M7.366,20.3,6.061,16.174c.7-2.189.847-3.628,0-4.986a3.523,3.523,0,0,0-3.116-1.87,47.167,47.167,0,0,0-1.87,8.1c-.059,1.027-.069,8.655.623,9.348L10.87,35.94a2.353,2.353,0,0,1,.8,1.87v1.8" transform="translate(0 -0.333)" fill="none" stroke="#6f9fbb" stroke-linejoin="round" stroke-width="1.787"/><path d="M12.624,30.653,7.016,25.045c-2.493-2.493.623-5.609,3.116-3.116l3.739,3.739c.519.519,2.739.246,3.563,1.069l3.116,3.117a5.487,5.487,0,0,1,1.332,3.334V37.68" transform="translate(-0.332 -1.102)" fill="none" stroke="#6f9fbb" stroke-linejoin="round" stroke-width="1.787"/><path d="M37.642,10.468a7.885,7.885,0,0,0-7.766-6.234c-4.26-.042-7.95,3.053-7.992,7.187-.042-4.133-3.732-7.229-7.991-7.187a7.886,7.886,0,0,0-7.767,6.234" transform="translate(-0.333)" fill="none" stroke="#6f9fbb" stroke-linejoin="round" stroke-width="1.787"/><path d="M37.87,20.3l1.305-4.123c-.7-2.189-.846-3.628,0-4.986a3.525,3.525,0,0,1,3.116-1.87,46.991,46.991,0,0,1,1.87,8.1c.059,1.027.07,8.655-.623,9.348L34.366,35.94a2.355,2.355,0,0,0-.8,1.87v1.8" transform="translate(-2.135 -0.333)" fill="none" stroke="#6f9fbb" stroke-linejoin="round" stroke-width="1.787"/><path d="M32.248,30.653l5.609-5.609c2.493-2.493-.623-5.609-3.116-3.116L31,25.668c-.519.519-2.739.246-3.563,1.069l-3.116,3.117a5.487,5.487,0,0,0-1.332,3.334V37.68" transform="translate(-1.441 -1.102)" fill="none" stroke="#6f9fbb" stroke-linejoin="round" stroke-width="1.787"/></g></g></svg>