<svg xmlns="http://www.w3.org/2000/svg" xmlns:xlink="http://www.w3.org/1999/xlink" width="46" height="46" viewBox="0 0 46 46"><defs><clipPath id="a"><rect width="46" height="46" transform="translate(-2534 4785)" fill="#fff" stroke="#707070" stroke-width="1"/></clipPath></defs><g transform="translate(2534 -4785)" clip-path="url(#a)"><g transform="translate(-2532.042 4785.252)"><g transform="translate(1.042 7.748)"><path d="M18.29,27.564H5.541a2.25,2.25,0,0,1-2.249-2.25V19.927c0-.888.262-.823.756-1.562l.743-1.116-3-.75a.75.75,0,0,1-.75-.75V13.316a.749.749,0,0,1,.75-.75H5.541l1.5,2.25,2.25.75h9" transform="translate(-1.042 -8.066)" fill="none" stroke="#6f9fbb" stroke-linecap="round" stroke-linejoin="round" stroke-width="2"/><path d="M7.867,19.277,9.1,20.508h3.078" transform="translate(-1.493 -8.509)" fill="none" stroke="#6f9fbb" stroke-linecap="round" stroke-miterlimit="10" stroke-width="2"/><path d="M4.253,28.351v3.44a.751.751,0,0,0,.75.75h5.25a.75.75,0,0,0,.75-.75v-.75" transform="translate(-1.254 -9.109)" fill="none" stroke="#6f9fbb" stroke-linejoin="round" stroke-width="2"/><path d="M36.757,14.816v-1.5a.749.749,0,0,0-.749-.75h-3.75l-1.5,2.25-2.25.75h-9" transform="translate(-2.262 -8.066)" fill="none" stroke="#6f9fbb" stroke-linecap="round" stroke-linejoin="round" stroke-width="2"/><line x2="7.098" transform="translate(17.248 19.498)" fill="none" stroke="#6f9fbb" stroke-linecap="round" stroke-linejoin="round" stroke-width="2"/><path d="M18.662,7.748h-7.5a2.642,2.642,0,0,0-2.25,1.5c-.243.476-2.25,4.5-2.25,4.5" transform="translate(-1.413 -7.748)" fill="none" stroke="#6f9fbb" stroke-miterlimit="10" stroke-width="2"/><path d="M19.51,7.748h7.5a2.642,2.642,0,0,1,2.25,1.5c.243.476,2.25,4.5,2.25,4.5" transform="translate(-2.262 -7.748)" fill="none" stroke="#6f9fbb" stroke-miterlimit="10" stroke-width="2"/><line x2="14.999" transform="translate(9.749 15.565)" fill="none" stroke="#6f9fbb" stroke-miterlimit="10" stroke-width="2"/></g><g transform="translate(25.389 17.563)"><g transform="translate(0 0)"><path d="M35.441,18.257c-.81,1.15-6.211,3.506-8.331,3.506V30.09c0,3.914,7.864,8.2,8.326,8.321.462-.123,8.327-4.705,8.327-7.883V21.763C41.45,21.763,36.251,19.407,35.441,18.257Z" transform="translate(-27.11 -18.257)" fill="none" stroke="#6f9fbb" stroke-linecap="round" stroke-linejoin="round" stroke-width="2.02"/></g></g></g></g></svg>