<svg xmlns="http://www.w3.org/2000/svg" xmlns:xlink="http://www.w3.org/1999/xlink" width="46" height="46" viewBox="0 0 46 46"><defs><clipPath id="a"><rect width="46" height="46" transform="translate(-2534 4843)" fill="#fff" stroke="#707070" stroke-width="1"/></clipPath></defs><g transform="translate(2534 -4843)" clip-path="url(#a)"><g transform="translate(-2532.077 4842.405)"><g transform="translate(1.077 5.595)"><path d="M25.55,34.181H4.682V19.052" transform="translate(-1.312 -6.473)" fill="none" stroke="#6f9fbb" stroke-linecap="round" stroke-linejoin="round" stroke-width="2.02"/><rect width="6.739" height="9.362" transform="translate(10.108 18.346)" fill="none" stroke="#6f9fbb" stroke-miterlimit="10" stroke-width="2.02"/><line x1="16.846" y2="15.723" fill="none" stroke="#6f9fbb" stroke-linecap="round" stroke-linejoin="round" stroke-width="2.02"/><line x2="11.611" y2="10.742" transform="translate(16.846)" fill="none" stroke="#6f9fbb" stroke-linecap="round" stroke-linejoin="round" stroke-width="2.02"/></g><g transform="translate(24.206 17.75)"><path d="M34.762,18.6c-.868,1.234-6.665,3.762-8.94,3.762V31.3c0,4.2,8.439,8.8,8.936,8.929.5-.133,8.935-5.049,8.935-8.459V22.361C41.21,22.361,35.631,19.833,34.762,18.6Z" transform="translate(-25.822 -18.599)" fill="none" stroke="#6f9fbb" stroke-linecap="round" stroke-linejoin="round" stroke-width="2.02"/></g><rect width="4.693" height="4.693" transform="translate(15.682 14.747)" fill="none" stroke="#6f9fbb" stroke-linecap="square" stroke-miterlimit="10" stroke-width="2.02"/><path d="M18.536,39.6H11.857a.944.944,0,0,1,0-1.888h6.679a.944.944,0,0,1,0,1.888Z" transform="translate(-0.642 -2.097)" fill="#6f9fbb" stroke="rgba(0,0,0,0)" stroke-width="1"/><path d="M21.536,43.237H14.857a.944.944,0,0,1,0-1.888h6.679a.944.944,0,0,1,0,1.888Z" transform="translate(-0.838 -2.334)" fill="#6f9fbb" stroke="rgba(0,0,0,0)" stroke-width="1"/></g></g></svg>