<svg xmlns="http://www.w3.org/2000/svg" xmlns:xlink="http://www.w3.org/1999/xlink" width="46" height="46" viewBox="0 0 46 46"><defs><clipPath id="a"><rect width="46" height="46" transform="translate(-2534 4908)" fill="#fff" stroke="#707070" stroke-width="1"/></clipPath></defs><g transform="translate(2534 -4908)" clip-path="url(#a)"><g transform="translate(-2532.369 4907.549)"><g transform="translate(25.376 19.993)"><path d="M35.223,20.808c-.827,1.173-6.338,3.578-8.5,3.578v8.5c0,3.994,8.024,8.364,8.5,8.49.472-.126,8.5-4.8,8.5-8.043V24.386C41.354,24.386,36.048,21.981,35.223,20.808Z" transform="translate(-26.721 -20.808)" fill="none" stroke="#6f9fbb" stroke-linecap="round" stroke-linejoin="round" stroke-width="2"/></g><g transform="translate(1.369 5.45)"><path d="M18.818,18.237,15.906,28.778l3.365-1.224,6.487-11.3,12.43-6.042c1.926-.958,3.951-2.139,3.488-3.413s-4.427-1.771-6.724-.935L11.424,16.115l-8-4.928-2.057.748,4.965,7.231c-.767.678-1.261,1.34-1.086,1.82.5,1.375,5.5.618,8.747-.562l1.543-.562" transform="translate(-1.369 -5.45)" fill="none" stroke="#6f9fbb" stroke-linecap="round" stroke-linejoin="round" stroke-width="2.02"/><path d="M20.145,9.514l-5.9-1.865-3.1,1.058,4.1,2.595" transform="translate(-1.888 -5.567)" fill="none" stroke="#6f9fbb" stroke-linecap="round" stroke-linejoin="round" stroke-width="2.02"/><line x1="23.909" transform="translate(0.098 28.43)" fill="none" stroke="#6f9fbb" stroke-miterlimit="10" stroke-width="2.02"/></g><line y2="3.804" transform="translate(9.776 30.076)" fill="none" stroke="#6f9fbb" stroke-miterlimit="10" stroke-width="2.02"/><line y2="8.187" transform="translate(8.121 25.693)" fill="none" stroke="#6f9fbb" stroke-miterlimit="10" stroke-width="2.02"/><line y2="5.473" transform="translate(6.232 28.408)" fill="none" stroke="#6f9fbb" stroke-miterlimit="10" stroke-width="2.02"/></g></g></svg>