<svg xmlns="http://www.w3.org/2000/svg" xmlns:xlink="http://www.w3.org/1999/xlink" width="46" height="46" viewBox="0 0 46 46"><defs><clipPath id="a"><rect width="46" height="46" transform="translate(-2534 4968)" fill="#fff" stroke="#707070" stroke-width="1"/></clipPath></defs><g transform="translate(2534 -4968)" clip-path="url(#a)"><g transform="translate(-2530 4942.949)"><g transform="translate(0 31.05)"><path d="M256.117,263.75h-5.291a2.628,2.628,0,0,0-2.626,2.626v4.058a2.628,2.628,0,0,0,2.626,2.626h5.291a2.628,2.628,0,0,0,2.626-2.626v-4.058A2.628,2.628,0,0,0,256.117,263.75Zm.716,6.684a.718.718,0,0,1-.716.716h-5.291a.718.718,0,0,1-.716-.716v-4.058a.718.718,0,0,1,.716-.716h5.291a.718.718,0,0,1,.716.716Z" transform="translate(-228.451 -245.234)" fill="#6f9fbb"/><path d="M38.941,42.19a.886.886,0,0,0-.127-.469L33.021,31.535a.96.96,0,0,0-.828-.485H6.74a.944.944,0,0,0-.828.485L.127,41.72A.965.965,0,0,0,0,42.19,5.586,5.586,0,0,0,3.342,47.3V64.1a.958.958,0,0,0,.955.955h30.34a.958.958,0,0,0,.955-.955V47.417a.42.42,0,0,0-.008-.1A5.6,5.6,0,0,0,38.941,42.19ZM7.3,32.968h24.34l4.528,7.965H2.777Zm20.418,9.867a3.67,3.67,0,0,1-7.225,0Zm-9.254,0a3.675,3.675,0,0,1-7.233,0Zm-16.487,0H9.206a3.675,3.675,0,0,1-7.233,0ZM16.041,63.14h-5.49v-10.3a1.36,1.36,0,0,1,1.361-1.361h2.777a1.36,1.36,0,0,1,1.361,1.361v10.3Zm17.641,0H17.951v-10.3a3.275,3.275,0,0,0-3.27-3.27H11.9a3.275,3.275,0,0,0-3.27,3.27V63.148H5.252V47.768c.111.008.223.008.334.008a5.579,5.579,0,0,0,4.631-2.467,5.58,5.58,0,0,0,9.262,0,5.566,5.566,0,0,0,9.246,0,5.579,5.579,0,0,0,4.631,2.467c.111,0,.215-.008.326-.008V63.14Zm-.326-17.275a3.668,3.668,0,0,1-3.612-3.024h7.233A3.69,3.69,0,0,1,33.355,45.866Z" transform="translate(0 -31.05)" fill="#6f9fbb"/></g></g></g></svg>