<svg xmlns="http://www.w3.org/2000/svg" xmlns:xlink="http://www.w3.org/1999/xlink" width="70" height="70" viewBox="0 0 70 70"><defs><clipPath id="a"><rect width="70" height="70" transform="translate(-21082 -1742)" fill="#fff"/></clipPath></defs><g transform="translate(21082 1742)" clip-path="url(#a)"><path d="M-24024.543,20439h-22.434a1.122,1.122,0,0,1-1.117-1.123,1.117,1.117,0,0,1,1.117-1.111h8.773l-.35-.412c-1.066-1.262-3.248-3.893-5.883-7.324-2.543-3.322-4.854-6.549-6.865-9.59a100.88,100.88,0,0,1-6.238-10.713,48.66,48.66,0,0,1-2.855-7.029,22.656,22.656,0,0,1-1.105-6.473,25.57,25.57,0,0,1,2.029-10.02,25.7,25.7,0,0,1,2.367-4.359,26.054,26.054,0,0,1,3.146-3.811,25.956,25.956,0,0,1,3.8-3.141,25.836,25.836,0,0,1,4.371-2.373,25.545,25.545,0,0,1,10.023-2.021,25.638,25.638,0,0,1,9.771,1.914,26.154,26.154,0,0,1,4.293,2.264,25.237,25.237,0,0,1,3.764,3,25.074,25.074,0,0,1,3.139,3.635,25.362,25.362,0,0,1,2.428,4.186,25.277,25.277,0,0,1,2.313,9.625,1.084,1.084,0,0,1-.289.8,1.086,1.086,0,0,1-.773.363h-.047a1.115,1.115,0,0,1-1.117-1.068,23.432,23.432,0,0,0-23.48-22.482,23.385,23.385,0,0,0-16.623,6.877,23.343,23.343,0,0,0-6.885,16.613c-.006,3.035,1.141,7.064,3.314,11.654a99.043,99.043,0,0,0,7.652,13.02,193.362,193.362,0,0,0,12.35,16.057l.191.225.188-.219c.395-.455.842-.984,1.449-1.715,1.348-1.607,3.473-4.207,5.943-7.469,4.2-5.559,9.906-13.744,13.193-21.184a1.112,1.112,0,0,1,1.021-.672,1.106,1.106,0,0,1,.453.1,1.085,1.085,0,0,1,.586.615,1.123,1.123,0,0,1-.02.857,86.783,86.783,0,0,1-6.213,11.3c-2.057,3.221-4.494,6.7-7.24,10.332-2.088,2.758-4.3,5.525-6.576,8.225l-.352.412h8.781a1.114,1.114,0,0,1,1.111,1.111A1.12,1.12,0,0,1-24024.543,20439Zm-11.221-24.887a18.8,18.8,0,0,1-7.354-1.484,18.894,18.894,0,0,1-6.01-4.047,18.834,18.834,0,0,1-4.045-6,18.822,18.822,0,0,1-1.486-7.355,18.807,18.807,0,0,1,1.486-7.355,18.79,18.79,0,0,1,4.045-6,18.84,18.84,0,0,1,6.01-4.047,18.8,18.8,0,0,1,7.354-1.484,18.8,18.8,0,0,1,7.355,1.484,18.785,18.785,0,0,1,6.01,4.047,18.679,18.679,0,0,1,4.051,6,18.709,18.709,0,0,1,1.486,7.355,18.723,18.723,0,0,1-1.486,7.355,18.765,18.765,0,0,1-4.051,6,18.807,18.807,0,0,1-6.01,4.047A18.8,18.8,0,0,1-24035.764,20414.115Zm0-35.543a16.557,16.557,0,0,0-11.781,4.879,16.531,16.531,0,0,0-4.879,11.775,16.531,16.531,0,0,0,4.879,11.775,16.557,16.557,0,0,0,11.781,4.879,16.586,16.586,0,0,0,11.789-4.879,16.551,16.551,0,0,0,4.879-11.775,16.551,16.551,0,0,0-4.879-11.775A16.586,16.586,0,0,0-24035.764,20378.572Zm-.777,23.236h0a1.169,1.169,0,0,1-.865-.363l-6.836-7.518a1.123,1.123,0,0,1-.295-.809,1.112,1.112,0,0,1,.369-.768,1.112,1.112,0,0,1,.748-.295,1.126,1.126,0,0,1,.828.367l5.688,6.256.211.23,7.4-10.484a1.126,1.126,0,0,1,.912-.471,1.1,1.1,0,0,1,.646.211,1.074,1.074,0,0,1,.459.719,1.076,1.076,0,0,1-.187.828l-8.207,11.625A1.211,1.211,0,0,1-24036.541,20401.809Zm24.668-.436a1.122,1.122,0,0,1-1.123-1.117,1.122,1.122,0,0,1,1.123-1.117,1.117,1.117,0,0,1,1.111,1.117A1.117,1.117,0,0,1-24011.873,20401.373Z" transform="translate(2988.771 -22111.25)" fill="#fff"/></g></svg>