<svg xmlns="http://www.w3.org/2000/svg" xmlns:xlink="http://www.w3.org/1999/xlink" width="100" height="100" viewBox="0 0 100 100"><defs><clipPath id="a"><rect width="100" height="100" transform="translate(-21065 -2650)" fill="#fff"/></clipPath></defs><g transform="translate(21065 2650)" clip-path="url(#a)"><g transform="translate(-21062.074 -2771.055)"><path d="M66.4,162.951c-3.039,0-4.094-.733-5.114-1.441-.231-.16-.466-.325-.738-.482-2.765-1.591-4.692-4.481-5.593-8.381-.093-.03-.192-.066-.3-.11a.9.9,0,1,1,.7-1.66,1.843,1.843,0,0,0,.448.131.916.916,0,0,1,.794.717c.513,2.555,1.772,5.973,4.85,7.744.32.184.6.375.866.562.9.625,1.612,1.119,4.084,1.119h.042c2.5,0,3.218-.5,4.121-1.136.269-.19.544-.381.861-.566,3.073-1.786,4.316-5.208,4.818-7.764a.9.9,0,0,1,.8-.724h0a1.947,1.947,0,0,0,.434-.131.9.9,0,0,1,.7,1.656c-.1.044-.2.081-.3.113-.884,3.9-2.8,6.8-5.558,8.406-.27.157-.5.322-.735.483-1.022.716-2.078,1.457-5.15,1.464Z" fill="#fff"/><path d="M58.822,164.743a.627.627,0,0,1-.075,0,.9.9,0,0,1-.823-.972c.139-1.663.359-4.461.358-4.889a.9.9,0,0,1,.9-.9.875.875,0,0,1,.9.9c0,.644-.327,4.6-.364,5.044A.9.9,0,0,1,58.822,164.743Z" fill="#fff"/><path d="M45.389,171.862a.9.9,0,0,1-.3-1.75c.541-.188,1.129-.36,1.747-.511a31.3,31.3,0,0,0,8.44-3.158.9.9,0,1,1,.866,1.58,32.816,32.816,0,0,1-8.879,3.327c-.564.137-1.1.292-1.582.461A.878.878,0,0,1,45.389,171.862Z" fill="#fff"/><path d="M73.9,164.644a.9.9,0,0,1-.9-.854c-.008-.176-.218-4.3-.219-4.943a.9.9,0,0,1,.9-.9h0a.9.9,0,0,1,.9.9c0,.495.158,3.673.218,4.855a.9.9,0,0,1-.853.944Z" fill="#fff"/><path d="M93.693,192.224a.9.9,0,0,1-.9-.9l-.02-9.391c-.011-5.034-.02-8.969-7.119-10.667a32.752,32.752,0,0,1-8.932-3.31.9.9,0,0,1,.423-1.69h.009a.9.9,0,0,1,.464.128,31.37,31.37,0,0,0,8.456,3.122c8.477,2.027,8.489,7.517,8.5,12.361l.02,9.443a.9.9,0,0,1-.9.9Z" fill="#fff"/><path d="M49.052,163.881a.9.9,0,0,1-.78-1.347c1.154-2.02,2.117-3.578,2.891-4.831,3.149-5.1,3.478-5.63,3.457-15.567a3.2,3.2,0,0,1,1.777-2.624,8.011,8.011,0,0,1,4.1-1.008h.02a13.828,13.828,0,0,1,3.258.484,11.5,11.5,0,0,0,2.6.408h.011a11.336,11.336,0,0,0,2.615-.42,13.825,13.825,0,0,1,3.273-.5H72.3c3.67,0,5.865,1.831,5.869,3.607.022,9.937.353,10.469,3.524,15.553.779,1.248,1.749,2.8,2.912,4.817a.9.9,0,0,1-1.559.9c-1.148-1.988-2.108-3.528-2.88-4.765-3.271-5.244-3.774-6.051-3.8-16.5,0-.635-1.4-1.86-4.091-1.81a12.2,12.2,0,0,0-2.858.448,12.994,12.994,0,0,1-3.03.47H66.38a13,13,0,0,1-3.016-.457,12.323,12.323,0,0,0-2.847-.435H60.5a6.3,6.3,0,0,0-3.176.75c-.669.4-.906.831-.906,1.077.023,10.451-.476,11.259-3.725,16.517-.766,1.241-1.72,2.785-2.86,4.778A.9.9,0,0,1,49.052,163.881Z" fill="#fff"/><path d="M54.594,133.97a.886.886,0,0,1-.465-.131.9.9,0,0,1-.306-1.232c.145-.24,3.637-5.88,12.54-5.9h.046c8.87,0,12.374,5.606,12.52,5.846a.9.9,0,0,1-1.538.935c-.134-.216-3.18-4.98-10.982-4.98h-.042c-7.845.016-10.877,4.824-11,5.029A.9.9,0,0,1,54.594,133.97Z" fill="#fff"/><path d="M54.876,137.654a2.677,2.677,0,0,1-2.99-2.763c0-1.707,2.145-2.569,2.39-2.662a.881.881,0,0,1,.22-.052c1.635-.181,2.788-.331,3.736-.455a49.258,49.258,0,0,1,8.141-.482,50.065,50.065,0,0,1,8.141.446c.949.121,2.1.266,3.74.44a.839.839,0,0,1,.22.052c.245.09,2.4.943,2.4,2.65a2.7,2.7,0,0,1-.782,2.015,3.1,3.1,0,0,1-2.207.761h0a4.834,4.834,0,0,1-.873-.128,50.605,50.605,0,0,0-10.406-.811h-.221a51.2,51.2,0,0,0-10.622.856A3.457,3.457,0,0,1,54.876,137.654Zm-.059-3.7c-.533.229-1.132.673-1.131.935,0,.467.094.966,1.189.966h.008a5.212,5.212,0,0,0,.53-.1,52.8,52.8,0,0,1,10.968-.892,56.382,56.382,0,0,1,10.974.845c.258.05.431.088.54.095a1.416,1.416,0,0,0,.957-.266.946.946,0,0,0,.224-.707c0-.261-.6-.7-1.136-.93-1.587-.169-2.718-.312-3.652-.43a45.7,45.7,0,0,0-7.911-.431,47.517,47.517,0,0,0-7.912.465C57.532,133.628,56.4,133.776,54.817,133.952Z" fill="#fff"/><path d="M48,171.134a.9.9,0,0,1-.9-.9c-.008-3.7,1.037-7.456,2.047-11.088.961-3.453,1.868-6.714,1.862-9.754-.009-3.76.324-10.822,1.624-13.434a.9.9,0,0,1,1.611.8c-.946,1.9-1.446,7.925-1.435,12.628.006,3.286-.933,6.664-1.928,10.24-.978,3.514-1.988,7.148-1.981,10.6a.9.9,0,0,1-.9.9Z" fill="#fff"/><path d="M84.912,171.055a.9.9,0,0,1-.9-.9c-.007-3.453-1.034-7.083-2.027-10.594-1.01-3.571-1.964-6.944-1.971-10.231-.01-4.7-.536-10.725-1.491-12.623a.9.9,0,0,1,1.609-.809c1.31,2.607,1.674,9.667,1.682,13.428.006,3.039.928,6.3,1.9,9.746,1.026,3.627,2.087,7.378,2.095,11.079a.9.9,0,0,1-.9.9Z" fill="#fff"/><path d="M55.747,168.116a.9.9,0,0,1-.808-1.3l1.632-3.334a.9.9,0,0,1,1.617.791l-1.633,3.334A.9.9,0,0,1,55.747,168.116Z" fill="#fff"/><path d="M77.155,168.069a.9.9,0,0,1-.807-.5L74.7,164.242a.9.9,0,0,1,1.613-.8l1.647,3.326a.9.9,0,0,1-.806,1.3Z" fill="#fff"/><path d="M57.379,164.782a.9.9,0,0,1,0-1.8l18.128-.039h0a.9.9,0,0,1,0,1.8l-18.128.039Z" fill="#fff"/><path d="M66.831,180.444a.9.9,0,0,1-.9-.9l-.033-15.4a.9.9,0,0,1,.9-.9h0a.9.9,0,0,1,.9.9l.033,15.4a.9.9,0,0,1-.9.9Z" fill="#fff"/><path d="M51.747,215.662a.9.9,0,0,1-.9-.9l-.04-25.023c-.005-1.991-.82-4.95-4.681-7.732a.9.9,0,0,1,1.053-1.461c3.492,2.518,5.42,5.782,5.427,9.19l.041,25.024a.9.9,0,0,1-.9.9Z" fill="#fff"/><path d="M28.218,170.608a8.709,8.709,0,0,1-6.844-3.772c-2.134-2.842-3.267-7.05-3.278-12.169a13.358,13.358,0,0,1,.888-3.672.9.9,0,0,1,.043-.1c1.426-2.724,3.629-5.51,9.154-5.523h.02a9.48,9.48,0,0,1,8.317,4.648.9.9,0,1,1-1.591.842,7.842,7.842,0,0,0-6.742-3.689c-4.277.008-6.114,1.807-7.539,4.509a11.566,11.566,0,0,0-.75,2.976c.01,4.728,1.019,8.563,2.917,11.093a6.943,6.943,0,0,0,5.406,3.052h.012a6.935,6.935,0,0,0,5.4-3.076c1.887-2.537,2.88-6.377,2.869-11.1l-.005-2.51a.9.9,0,0,1,.9-.9h0a.9.9,0,0,1,.9.9l.005,2.51c.011,5.118-1.1,9.331-3.224,12.183a8.711,8.711,0,0,1-6.845,3.8Z" fill="#fff"/><path d="M32.44,182.314a.9.9,0,0,1-.208-1.775,10.5,10.5,0,0,0,8.49-10.021,30.538,30.538,0,0,0-.426-4.983,31.065,31.065,0,0,1-.431-5.059c0-8.993-.986-13.813-3.3-16.12-1.821-1.816-4.626-2.2-8.275-2.2h-.119c-3.261.007-5.791.9-7.519,2.651-3.384,3.429-3.315,9.613-3.269,13.706.005.413.009.806.01,1.175a21.2,21.2,0,0,1-1,7.035,11.811,11.811,0,0,0-.65,3.847.9.9,0,0,1-.9.9h0a.9.9,0,0,1-.9-.9,13.462,13.462,0,0,1,.724-4.365,19.6,19.6,0,0,0,.926-6.517c0-.364-.006-.752-.01-1.16-.049-4.391-.124-11.025,3.788-14.99,2.078-2.106,5.037-3.178,8.8-3.187,4.2.008,7.391.452,9.669,2.725,2.718,2.712,3.826,7.751,3.826,17.394a29.229,29.229,0,0,0,.411,4.794,32.541,32.541,0,0,1,.446,5.245,12.307,12.307,0,0,1-9.872,11.774A.843.843,0,0,1,32.44,182.314Z" fill="#fff"/><path d="M9.843,179.016a.979.979,0,0,1-.12-.008A.9.9,0,0,1,8.95,178a7.172,7.172,0,0,1,6.736-5.815H15.7c2.291,0,4.4,1.291,6.437,2.54,1.968,1.206,4,2.453,6.1,2.453h.012c7.5-.016,9.073-8.09,9.137-8.434a.9.9,0,0,1,1.771.321c-.018.1-1.892,9.894-10.905,9.913h-.015c-2.606,0-4.861-1.382-7.043-2.718-1.909-1.17-3.713-2.275-5.5-2.275H15.69a5.432,5.432,0,0,0-4.956,4.251A.9.9,0,0,1,9.843,179.016Z" fill="#fff"/><path d="M4.849,192.416a.9.9,0,0,1-.9-.9l0-1.674c-.006-2.37.978-6.9,7.627-10.635,5.4-3.033,9.015-.4,12.506,2.141,2.82,2.055,5.738,4.181,10.017,4.181h.029c3.072-.006,5.545-.75,7.153-2.15a5.415,5.415,0,0,0,1.938-4.052,20.036,20.036,0,0,0-.774-4.377.9.9,0,1,1,1.725-.511,21.365,21.365,0,0,1,.849,4.884,7.207,7.207,0,0,1-2.556,5.413c-1.939,1.69-4.82,2.586-8.332,2.594H34.1c-4.866,0-8.166-2.4-11.078-4.528-3.445-2.51-6.165-4.494-10.564-2.025-5.847,3.281-6.713,7.085-6.708,9.061l0,1.675a.9.9,0,0,1-.9.9Z" fill="#fff"/><path d="M27.442,192.367a.9.9,0,0,1-.9-.9l-.008-4.185a.9.9,0,0,1,.9-.9h0a.9.9,0,0,1,.9.9l.009,4.185a.9.9,0,0,1-.9.9Z" fill="#fff"/><path d="M15.728,192.392a.9.9,0,0,1-.9-.9l-.022-10.042a.9.9,0,0,1,.9-.9h0a.9.9,0,0,1,.9.9l.021,10.042a.9.9,0,0,1-.9.9Z" fill="#fff"/><rect width="3.125" height="2" transform="translate(6.325 128.438)" fill="#fff"/><rect width="3.125" height="2" transform="translate(0.075 128.438)" fill="#fff"/><path d="M50,130.438H40.311l-.264-.6a3.766,3.766,0,0,0-3.276-2.267,3.53,3.53,0,0,0-1.32.212l-.95.381-.359-.957a6.421,6.421,0,0,0-5.979-4.155c-3.519,0-6.385,3.864-6.391,6.385l0,1h-9.2v-2h7.284c.6-3.54,4.187-7.383,8.3-7.383a8.432,8.432,0,0,1,7.482,4.611,6.425,6.425,0,0,1,1.126-.092,5.684,5.684,0,0,1,4.8,2.864H50Z" fill="#fff"/><path d="M72.819,220.991a1.1,1.1,0,0,1-.291-.039c-.868-.248-16.195-8.923-16.195-17.526V186.85a1,1,0,0,1,2,0v16.576c0,6.406,11.916,14.209,14.484,15.48,2.484-1.224,14.472-9.055,14.472-15.48V187.782c-4.571-.573-12.763-4.618-15.208-7.228a1,1,0,0,1,1.46-1.367C75.8,181.6,84.7,185.85,88.289,185.85a1,1,0,0,1,1,1v16.576c0,8.6-15.327,17.278-16.195,17.526A.988.988,0,0,1,72.819,220.991Z" fill="#fff"/><path d="M79.4,207.6a1,1,0,0,1-.732-1.682c1.378-1.478,2.106-2.846,2.106-3.958v-8.7a22.187,22.187,0,0,1-7.967-3.613,17.006,17.006,0,0,1-2.246,1.418,1,1,0,1,1-.95-1.76,10.968,10.968,0,0,0,2.465-1.675,1.03,1.03,0,0,1,1.46,0c1.264,1.35,6.235,3.729,8.238,3.729a1,1,0,0,1,1,1v9.6c0,1.65-.889,3.44-2.643,5.322A.994.994,0,0,1,79.4,207.6Z" fill="#fff"/><path d="M72.816,212.555a1.066,1.066,0,0,1-.286-.039c-.583-.167-9.688-5.275-9.688-10.56v-9.6a1,1,0,0,1,1-1,9.761,9.761,0,0,0,2.992-.769,1,1,0,0,1,.721,1.866,15.38,15.38,0,0,1-2.713.8v8.7c0,3.33,6.165,7.517,7.967,8.492a29.862,29.862,0,0,0,3.182-2.138,1,1,0,0,1,1.218,1.586,22.117,22.117,0,0,1-4.118,2.621A1.025,1.025,0,0,1,72.816,212.555Z" fill="#fff"/><path d="M41.446,165.05" fill="#fff"/><path d="M41.078,164.631" fill="#fff"/></g></g></svg>