<svg xmlns="http://www.w3.org/2000/svg" xmlns:xlink="http://www.w3.org/1999/xlink" width="100" height="100" viewBox="0 0 100 100"><defs><clipPath id="a"><rect width="100" height="100" transform="translate(-21065 -2798)" fill="#fff"/></clipPath></defs><g transform="translate(21065 2798)" clip-path="url(#a)"><g transform="translate(-21065 -2797.52)"><circle cx="29.168" cy="29.168" r="29.168" transform="translate(21.526 2.774) rotate(-0.978)" fill="#fcf0e6"/><path d="M77.624,82.91V55.273L49.987,27.637,22.35,55.273V82.91Z" fill="#fff"/><path d="M38.384,8.677H22.524l-.009-.991A5.5,5.5,0,0,0,17.177,2.52a5.432,5.432,0,0,0-4.6,2.814l-.33.57-.655-.079a5.141,5.141,0,0,0-4.677,2.4l-.3.45H0v-2H5.566A7.014,7.014,0,0,1,11.185,3.8,7.374,7.374,0,0,1,17.177.52a7.546,7.546,0,0,1,7.252,6.157H38.384Z" fill="#abc7d5"/><rect width="2" height="27.637" transform="translate(17.949 55.273)" fill="#679ab4"/><path d="M57.822,56.273H43.113V41.564H57.822Zm-12.709-2H55.822V43.564H45.113Z" fill="#679ab4"/><rect width="17.09" height="1.83" transform="translate(34.098 88.786)" fill="#679ab4"/><path d="M50,12.283,10.08,52.2l7.677,7.677L50,27.637,82.243,59.879,89.92,52.2Z" fill="#9abccd"/><path d="M82.243,60.88a1,1,0,0,1-.707-.293L50,29.051,18.464,60.587a1.029,1.029,0,0,1-1.414,0L9.374,52.91a1,1,0,0,1,0-1.414l39.919-39.92a1.029,1.029,0,0,1,1.414,0L90.626,51.5a1,1,0,0,1,0,1.414L82.95,60.587A1,1,0,0,1,82.243,60.88ZM50,26.637a1,1,0,0,1,.707.292L82.243,58.466,88.5,52.2,50,13.7,11.495,52.2l6.262,6.263L49.293,26.929A1,1,0,0,1,50,26.637Z" fill="#679ab4"/><path d="M46.381,83.91H32.1v-23.5H46.381Zm-12.283-2H44.381v-19.5H34.1Z" fill="#679ab4"/><path d="M45.451,83.91H8.6a1,1,0,0,1,0-2H45.451a1,1,0,0,1,0,2Z" fill="#679ab4"/><path d="M100,19.425H90.394l-.263-.6a3.664,3.664,0,0,0-3.214-2.218,3.435,3.435,0,0,0-1.281.208l-.949.38-.36-.957a6.292,6.292,0,0,0-5.859-4.072c-3.448,0-6.257,3.787-6.262,6.258l0,1H63.151v-2h7.143c.6-3.483,4.126-7.256,8.174-7.256A8.3,8.3,0,0,1,85.83,14.7a6.282,6.282,0,0,1,1.085-.088h.013a5.606,5.606,0,0,1,4.728,2.815H100Z" fill="#abc7d5"/><path d="M69.695,99c.859-.245,15.469-8.772,15.469-16.564V65.859c-3.939,0-13.027-4.362-15.478-6.979-2.451,2.617-11.539,6.979-15.477,6.979V82.436c0,7.792,14.609,16.319,15.469,16.564Z" fill="#fff"/><path d="M69.686,58.88c-2.451,2.617-11.539,6.979-15.477,6.979V82.436c0,7.792,14.609,16.318,15.469,16.564h.017c.859-.246,15.469-8.772,15.469-16.564V65.859C81.225,65.859,72.137,61.5,69.686,58.88ZM81.645,81.641c0,6.02-11.288,12.608-11.952,12.8H69.68c-.664-.19-11.952-6.778-11.952-12.8V68.833c3.043,0,10.064-3.37,11.958-5.392,1.894,2.022,8.915,5.392,11.959,5.392Z" fill="#dde9ee"/><path d="M69.695,100a1.139,1.139,0,0,1-.291-.038c-.869-.248-16.195-8.924-16.195-17.526V65.859a1,1,0,0,1,2,0V82.436c0,6.406,11.915,14.209,14.483,15.479,2.484-1.224,14.472-9.055,14.472-15.479V66.791c-4.57-.572-12.763-4.617-15.208-7.228a1,1,0,0,1,1.46-1.367c2.259,2.412,11.159,6.663,14.748,6.663a1,1,0,0,1,1,1V82.436c0,8.6-15.327,17.278-16.195,17.526A1.012,1.012,0,0,1,69.695,100Z" fill="#679ab4"/><path d="M76.28,86.605a1,1,0,0,1-.731-1.681c1.378-1.479,2.106-2.847,2.106-3.958v-8.7a22.173,22.173,0,0,1-7.967-3.614,17.07,17.07,0,0,1-2.246,1.418,1,1,0,1,1-.95-1.759,11.024,11.024,0,0,0,2.464-1.675,1.03,1.03,0,0,1,1.46,0c1.264,1.349,6.236,3.728,8.239,3.728a1,1,0,0,1,1,1v9.606c0,1.649-.889,3.439-2.643,5.321A1,1,0,0,1,76.28,86.605Z" fill="#efa36c"/><path d="M69.691,91.564a1.021,1.021,0,0,1-.285-.039c-.584-.167-9.689-5.275-9.689-10.559V71.36a1,1,0,0,1,1-1,9.78,9.78,0,0,0,2.993-.768,1,1,0,0,1,.721,1.865,15.306,15.306,0,0,1-2.714.805v8.7c0,3.329,6.165,7.516,7.968,8.491a29.722,29.722,0,0,0,3.181-2.138A1,1,0,1,1,74.084,88.9a22.05,22.05,0,0,1-4.118,2.621A.982.982,0,0,1,69.691,91.564Z" fill="#efa36c"/></g></g></svg>