<svg xmlns="http://www.w3.org/2000/svg" xmlns:xlink="http://www.w3.org/1999/xlink" width="100" height="100" viewBox="0 0 100 100"><defs><clipPath id="a"><rect width="100" height="100" transform="translate(-21065 -2971)" fill="#fff"/></clipPath></defs><g transform="translate(21065 2971)" clip-path="url(#a)"><g transform="translate(-21065.346 -2969)"><path d="M53.607,20.78H36.59l-.263-.6a4.08,4.08,0,0,0-3.551-2.454,4.694,4.694,0,0,0-1.429.23l-.95.382-.359-.958a6.9,6.9,0,0,0-6.43-4.468c-3.785,0-6.867,4.155-6.874,6.867l0,1H.345v-2H14.817c.6-3.759,4.415-7.865,8.791-7.865a8.915,8.915,0,0,1,7.933,4.919,8.15,8.15,0,0,1,1.236-.1,5.992,5.992,0,0,1,5.078,3.051H53.607Z" fill="#fff"/><path d="M100,29.1H92.873l-.3-.45a5.682,5.682,0,0,0-5.152-2.642l-.654.079-.331-.569a5.971,5.971,0,0,0-5.061-3.092,6.052,6.052,0,0,0-5.87,5.683l-.01.991H58.389v-2h15.2a8.088,8.088,0,0,1,7.789-6.674,7.914,7.914,0,0,1,6.452,3.55A7.683,7.683,0,0,1,93.925,27.1H100Z" fill="#fff"/><rect width="8.019" height="1.83" transform="translate(58.673 88.712)" fill="#fff"/><rect width="8.019" height="1.83" transform="translate(47.178 88.712)" fill="#fff"/><rect width="8.019" height="1.83" transform="translate(35.683 88.712)" fill="#fff"/><rect width="8.019" height="1.83" transform="translate(24.189 88.712)" fill="#fff"/><rect width="8.019" height="1.83" transform="translate(12.694 88.712)" fill="#fff"/><path d="M33.086,58.826H28.254c-3,0-4.458-2.848-4.519-2.97a1,1,0,0,1,1.787-.9,3.5,3.5,0,0,0,2.732,1.868h4.832a1,1,0,0,1,0,2Z" fill="#fff"/><path d="M34.294,79.363H22.213A2.21,2.21,0,0,1,20,77.155V71.4a1,1,0,0,1,2,0v5.756a.208.208,0,0,0,.208.208H34.294a.208.208,0,0,0,.208-.208V72.323a1,1,0,0,1,2,0v4.832A2.21,2.21,0,0,1,34.294,79.363Z" fill="#fff"/><path d="M54.833,66.074H35.5a1,1,0,0,1,0-2H54.833a1,1,0,0,1,0,2Z" fill="#fff"/><path d="M73.811,46.239a1,1,0,0,1-.964-.736,28.387,28.387,0,0,0-4.928-9.127A3.548,3.548,0,0,0,64.5,34.664h-29a3.548,3.548,0,0,0-3.421,1.712A28.387,28.387,0,0,0,27.153,45.5a1,1,0,1,1-1.929-.53,29.878,29.878,0,0,1,5.294-9.844A5.471,5.471,0,0,1,35.5,32.664h29a5.473,5.473,0,0,1,4.984,2.464,29.875,29.875,0,0,1,5.293,9.846,1,1,0,0,1-.7,1.229A1.018,1.018,0,0,1,73.811,46.239Z" fill="#fff"/><path d="M55.234,73.323H23.421A4.629,4.629,0,0,1,18.8,68.7V57.826a10.587,10.587,0,0,1,1.783-5.889l.651-.977c-2.011-.414-5.237-1.1-6.1-1.284a2.872,2.872,0,0,1-2.375-2.723V44.537a3.419,3.419,0,0,1,3.416-3.416h6.963a2.928,2.928,0,0,1,3.014,1.833c.474.994.951,1.922,1.4,2.8l.2.382c.222.433.526,1.025,4.128,1.025H68.122c3.6,0,3.906-.592,4.128-1.025l.2-.382c.452-.878.929-1.806,1.4-2.8a2.928,2.928,0,0,1,3.014-1.833h6.963a3.419,3.419,0,0,1,3.416,3.416v2.416a2.872,2.872,0,0,1-2.374,2.723c-.863.184-4.09.87-6.1,1.284l.651.977A10.587,10.587,0,0,1,81.2,57.826a1,1,0,0,1-2,0,8.6,8.6,0,0,0-1.447-4.78l-1.473-2.21a1,1,0,0,1,.632-1.534c.106-.022,6.576-1.378,7.536-1.582.008,0,.792-.176.792-.767V44.537a1.417,1.417,0,0,0-1.416-1.416H76.864c-.682,0-.893.029-1.209.692-.482,1.014-.969,1.96-1.43,2.856l-.2.381c-.811,1.578-2.3,2.111-5.907,2.111H31.878c-3.606,0-5.1-.533-5.907-2.111l-.2-.381c-.461-.9-.948-1.842-1.43-2.856-.316-.663-.527-.692-1.209-.692H16.173a1.417,1.417,0,0,0-1.416,1.416v2.416c0,.591.784.765.792.767.96.2,7.43,1.56,7.536,1.582a1,1,0,0,1,.631,1.534l-1.472,2.21a8.6,8.6,0,0,0-1.447,4.78V68.7a2.627,2.627,0,0,0,2.624,2.624H55.234a1,1,0,0,1,0,2Z" fill="#fff"/><path d="M75.364,96.6a1.1,1.1,0,0,1-.291-.038c-.868-.248-16.195-8.924-16.195-17.526V62.458a1,1,0,0,1,2,0V79.034c0,6.406,11.916,14.209,14.484,15.479,2.484-1.223,14.472-9.054,14.472-15.479V63.389c-4.571-.572-12.763-4.617-15.208-7.227a1,1,0,0,1,1.46-1.367c2.259,2.412,11.158,6.663,14.748,6.663a1,1,0,0,1,1,1V79.034c0,8.6-15.327,17.278-16.195,17.526A.987.987,0,0,1,75.364,96.6Z" fill="#fff"/><path d="M81.95,83.2a1,1,0,0,1-.732-1.682c1.378-1.478,2.106-2.847,2.106-3.958v-8.7a22.2,22.2,0,0,1-7.967-3.613,17,17,0,0,1-2.246,1.418,1,1,0,1,1-.95-1.76,10.968,10.968,0,0,0,2.465-1.675,1.03,1.03,0,0,1,1.46,0c1.264,1.35,6.235,3.729,8.238,3.729a1,1,0,0,1,1,1v9.605c0,1.65-.889,3.44-2.643,5.321A1,1,0,0,1,81.95,83.2Z" fill="#fff"/><path d="M75.361,88.163a1.066,1.066,0,0,1-.286-.039c-.583-.167-9.688-5.276-9.688-10.56V67.959a1,1,0,0,1,1-1,9.791,9.791,0,0,0,2.992-.769,1,1,0,0,1,.721,1.865,15.3,15.3,0,0,1-2.713.805v8.7c0,3.329,6.165,7.517,7.967,8.491a29.65,29.65,0,0,0,3.182-2.137A1,1,0,1,1,79.753,85.5a22.145,22.145,0,0,1-4.117,2.621A1.025,1.025,0,0,1,75.361,88.163Z" fill="#fff"/></g></g></svg>