<svg xmlns="http://www.w3.org/2000/svg" xmlns:xlink="http://www.w3.org/1999/xlink" width="100" height="100" viewBox="0 0 100 100"><defs><clipPath id="a"><rect width="100" height="100" transform="translate(-21065 -2499)" fill="#fff"/></clipPath></defs><g transform="translate(21065 2499)" clip-path="url(#a)"><g transform="translate(-21065.078 -2746.919)"><circle cx="36.891" cy="36.891" r="36.891" transform="translate(-3.922 284.649) rotate(-43.438)" fill="#fcf0e6"/><path d="M83.531,347.367C84.39,347.121,99,338.6,99,330.8V314.226c-3.939,0-13.027-4.363-15.478-6.98-2.451,2.617-11.539,6.98-15.477,6.98V330.8c0,7.793,14.609,16.319,15.468,16.565Z" fill="#fff"/><path d="M83.522,307.246c-2.451,2.617-11.539,6.98-15.477,6.98V330.8c0,7.793,14.609,16.319,15.468,16.565h.018C84.39,347.121,99,338.6,99,330.8V314.226C95.061,314.226,85.973,309.863,83.522,307.246ZM95.48,330.007c0,6.021-11.287,12.609-11.951,12.8h-.014c-.664-.189-11.951-6.777-11.951-12.8V317.2c3.043,0,10.064-3.37,11.958-5.393,1.894,2.023,8.915,5.393,11.958,5.393Z" fill="#dde9ee"/><path d="M83.531,348.366a1.1,1.1,0,0,1-.291-.038c-.869-.248-16.2-8.923-16.2-17.526V314.226a1,1,0,0,1,2,0V330.8c0,6.406,11.916,14.209,14.484,15.48C86.012,345.058,98,337.227,98,330.8V315.157c-4.57-.572-12.763-4.617-15.208-7.227a1,1,0,0,1,1.46-1.367c2.259,2.412,11.159,6.663,14.748,6.663a1,1,0,0,1,1,1V330.8c0,8.6-15.327,17.278-16.195,17.526A.975.975,0,0,1,83.531,348.366Z" fill="#679ab4"/><path d="M90.116,334.972a1,1,0,0,1-.731-1.682c1.378-1.478,2.106-2.846,2.106-3.958v-8.7a22.2,22.2,0,0,1-7.968-3.613,17,17,0,0,1-2.245,1.418,1,1,0,1,1-.95-1.76A10.957,10.957,0,0,0,82.792,315a1.03,1.03,0,0,1,1.46,0c1.264,1.35,6.236,3.729,8.239,3.729a1,1,0,0,1,1,1v9.605c0,1.65-.889,3.44-2.643,5.322A1,1,0,0,1,90.116,334.972Z" fill="#efa36c"/><path d="M83.527,339.931a1.059,1.059,0,0,1-.285-.039c-.584-.167-9.689-5.276-9.689-10.56v-9.605a1,1,0,0,1,1-1,9.766,9.766,0,0,0,2.993-.769,1,1,0,0,1,.721,1.866,15.418,15.418,0,0,1-2.714.8v8.7c0,3.329,6.165,7.517,7.968,8.492a29.883,29.883,0,0,0,3.181-2.138,1,1,0,1,1,1.218,1.586,22.05,22.05,0,0,1-4.118,2.621A1.02,1.02,0,0,1,83.527,339.931Z" fill="#efa36c"/><line x1="42.045" y2="41.962" transform="translate(0.707 264.11)" fill="#679ab4"/><rect width="59.402" height="2" transform="matrix(0.708, -0.706, 0.706, 0.708, -0.001, 305.363)" fill="#679ab4"/><line x1="14.13" y2="14.13" transform="translate(45.545 304.682)" fill="#679ab4"/><rect width="19.983" height="2" transform="translate(44.838 318.105) rotate(-45)" fill="#679ab4"/><path d="M49.794,290.53l1.5,11.584-3.127,1.424-5.488-9.146" fill="#e9eaeb"/><path d="M47.771,304.817l-5.947-9.911,1.715-1.029,5.028,8.38,1.643-.748L48.8,290.658l1.983-.258,1.6,12.316Z" fill="#679ab4"/><path d="M43.291,284.026l-11.584-1.5-1.424,3.127,9.146,5.488" fill="#e9eaeb"/><path d="M38.915,292,29,286.05l2.1-4.612,12.316,1.6-.257,1.982-10.851-1.406-.748,1.642,8.38,5.029Z" fill="#679ab4"/><path d="M69.782,269.393,58.307,280.681,65.623,288l7.41,13.914,3.3-.052Z" fill="#a3d4ff"/><path d="M72.438,302.921,64.811,288.6l-7.924-7.924L70.4,267.385l7.16,35.454ZM59.727,280.687l6.779,6.84L73.629,300.9l1.491-.023L69.167,271.4Z" fill="#679ab4"/><path d="M31.962,257.483l-.052,3.3,13.914,7.41,7.317,7.317,11.288-11.475Z" fill="#a3d4ff"/><path d="M53.146,276.934l-7.924-7.924L30.9,261.383l.081-5.119,35.454,7.16ZM32.919,260.192l13.611,7.3,6.6,6.6,9.286-9.44L32.943,258.7Z" fill="#679ab4"/><path d="M83.939,249.882c-1.789-1.789-7.967,1.463-9.756,3.252L45.237,282.08c-1.936,1.935-10.381,13.023-8.45,14.953s13.018-6.514,14.953-8.449l28.947-28.947C82.475,257.849,85.727,251.67,83.939,249.882Z" fill="#fff"/><path d="M37.581,298.274a2.036,2.036,0,0,1-1.5-.534c-3.1-3.1,8.325-16.243,8.449-16.367l28.947-28.946a17.764,17.764,0,0,1,5.207-3.187c2.8-1.142,4.863-1.165,5.963-.065h0c1.1,1.1,1.077,3.162-.066,5.962a17.785,17.785,0,0,1-3.186,5.207L52.447,289.291C52.338,289.4,42.134,298.273,37.581,298.274Zm44.794-47.916a8.309,8.309,0,0,0-2.936.734,15.986,15.986,0,0,0-4.549,2.749L45.943,282.787c-2.672,2.673-9.1,12.022-8.42,13.578,1.479.6,10.836-5.815,13.51-8.488L79.98,258.93a16,16,0,0,0,2.749-4.548c.859-2.107.872-3.424.5-3.793h0A1.231,1.231,0,0,0,82.375,250.358Z" fill="#679ab4"/><rect width="17.245" height="2" transform="translate(57.078 295.989) rotate(-45)" fill="#679ab4"/><path d="M55.515,334.8H34.57l-.263-.6a3.663,3.663,0,0,0-3.214-2.218,3.416,3.416,0,0,0-1.281.208l-.949.38-.359-.957a6.293,6.293,0,0,0-5.859-4.073c-3.449,0-6.257,3.787-6.263,6.258l0,1H7.328v-2h7.143c.6-3.482,4.126-7.256,8.174-7.256a8.306,8.306,0,0,1,7.362,4.53,6.263,6.263,0,0,1,1.084-.088H31.1a5.6,5.6,0,0,1,4.728,2.814H55.515Z" fill="#abc7d5"/></g></g></svg>