<svg xmlns="http://www.w3.org/2000/svg" xmlns:xlink="http://www.w3.org/1999/xlink" width="100" height="100" viewBox="0 0 100 100"><defs><clipPath id="a"><rect width="100" height="100" transform="translate(-21065 -2499)" fill="#fff"/></clipPath></defs><g transform="translate(21065 2499)" clip-path="url(#a)"><g transform="translate(-21065.078 -2746.919)"><path d="M83.531,348.366a1.1,1.1,0,0,1-.291-.038c-.869-.248-16.2-8.923-16.2-17.526V314.226a1,1,0,0,1,2,0V330.8c0,6.406,11.916,14.209,14.484,15.48C86.012,345.058,98,337.227,98,330.8V315.157c-4.57-.572-12.763-4.617-15.208-7.227a1,1,0,0,1,1.46-1.367c2.259,2.412,11.159,6.663,14.748,6.663a1,1,0,0,1,1,1V330.8c0,8.6-15.327,17.278-16.195,17.526A.975.975,0,0,1,83.531,348.366Z" fill="#fff"/><path d="M90.116,334.972a1,1,0,0,1-.731-1.682c1.378-1.478,2.106-2.846,2.106-3.958v-8.7a22.2,22.2,0,0,1-7.968-3.613,17,17,0,0,1-2.245,1.418,1,1,0,1,1-.95-1.76A10.957,10.957,0,0,0,82.792,315a1.03,1.03,0,0,1,1.46,0c1.264,1.35,6.236,3.729,8.239,3.729a1,1,0,0,1,1,1v9.605c0,1.65-.889,3.44-2.643,5.322A1,1,0,0,1,90.116,334.972Z" fill="#fff"/><path d="M83.527,339.931a1.059,1.059,0,0,1-.285-.039c-.584-.167-9.689-5.276-9.689-10.56v-9.605a1,1,0,0,1,1-1,9.766,9.766,0,0,0,2.993-.769,1,1,0,0,1,.721,1.866,15.418,15.418,0,0,1-2.714.8v8.7c0,3.329,6.165,7.517,7.968,8.492a29.883,29.883,0,0,0,3.181-2.138,1,1,0,1,1,1.218,1.586,22.05,22.05,0,0,1-4.118,2.621A1.02,1.02,0,0,1,83.527,339.931Z" fill="#fff"/><line x1="42.045" y2="41.962" transform="translate(0.707 264.11)" fill="#679ab4"/><rect width="56.402" height="2" transform="matrix(0.708, -0.706, 0.706, 0.708, -0.001, 305.363)" fill="#fff"/><line x1="14.13" y2="14.13" transform="translate(45.545 304.682)" fill="#679ab4"/><rect width="19.983" height="2" transform="translate(44.838 318.105) rotate(-45)" fill="#fff"/><path d="M47.771,304.817l-5.947-9.911,1.715-1.029,5.028,8.38,1.643-.748L48.8,290.658l1.983-.258,1.6,12.316Z" fill="#fff"/><path d="M38.915,292,29,286.05l2.1-4.612,12.316,1.6-.257,1.982-10.851-1.406-.748,1.642,8.38,5.029Z" fill="#fff"/><path d="M72.438,302.921,64.811,288.6l-6.92-7.092L70.354,268.9l7.2,33.941ZM59.727,280.687l6.779,6.84L73.629,300.9l1.491-.023L69.167,271.4Z" fill="#fff"/><path d="M52.313,275.942l-7.09-6.932L30.9,261.383l.081-5.119,34.3,6.962Zm-19.394-15.75,13.611,7.3,6.6,6.6,9.286-9.44L32.943,258.7Z" fill="#fff"/><path d="M37.581,298.274a2.036,2.036,0,0,1-1.5-.534c-3.1-3.1,8.325-16.243,8.449-16.367l28.947-28.946a17.764,17.764,0,0,1,5.207-3.187c2.8-1.142,4.863-1.165,5.963-.065h0c1.1,1.1,1.077,3.162-.066,5.962a17.785,17.785,0,0,1-3.186,5.207L52.447,289.291C52.338,289.4,42.134,298.273,37.581,298.274Zm44.794-47.916a8.309,8.309,0,0,0-2.936.734,15.986,15.986,0,0,0-4.549,2.749L45.943,282.787c-2.672,2.673-9.1,12.022-8.42,13.578,1.479.6,10.836-5.815,13.51-8.488L79.98,258.93a16,16,0,0,0,2.749-4.548c.859-2.107.872-3.424.5-3.793h0A1.231,1.231,0,0,0,82.375,250.358Z" fill="#fff"/><rect width="11.245" height="2" transform="translate(57.078 295.989) rotate(-45)" fill="#fff"/><path d="M55.515,334.8H34.57l-.263-.6a3.663,3.663,0,0,0-3.214-2.218,3.416,3.416,0,0,0-1.281.208l-.949.38-.359-.957a6.293,6.293,0,0,0-5.859-4.073c-3.449,0-6.257,3.787-6.263,6.258l0,1H7.328v-2h7.143c.6-3.482,4.126-7.256,8.174-7.256a8.306,8.306,0,0,1,7.362,4.53,6.263,6.263,0,0,1,1.084-.088H31.1a5.6,5.6,0,0,1,4.728,2.814H55.515Z" fill="#fff"/></g></g></svg>