<svg xmlns="http://www.w3.org/2000/svg" width="54" height="55.667" viewBox="0 0 54 55.667"><g transform="translate(-1554 -6748.299)"><g transform="translate(1554 6748.299)"><path d="M42.093,156.435a.795.795,0,0,1-.131-1.579c7.375-1.229,12.632-7.59,14.013-13.239a.794.794,0,1,1,1.543.377c-1.5,6.154-7.24,13.088-15.293,14.43A.9.9,0,0,1,42.093,156.435Z" transform="translate(-8.961 -103.282)" fill="#f2631e"/><path d="M9.943,115.821a.794.794,0,0,1-.794-.794V113.36c0-10.079,9.384-18.278,20.917-18.278s20.917,8.2,20.917,18.278v1.381a.794.794,0,1,1-1.589,0V113.36c0-9.2-8.671-16.69-19.328-16.69s-19.328,7.487-19.328,16.69v1.666A.794.794,0,0,1,9.943,115.821Z" transform="translate(-3.222 -95.082)" fill="#f2631e"/><path d="M37.718,161.136H28.427A2.44,2.44,0,0,1,25.99,158.7v-3a2.44,2.44,0,0,1,2.437-2.437h9.291a2.44,2.44,0,0,1,2.437,2.437v3A2.44,2.44,0,0,1,37.718,161.136Zm-9.291-6.288a.85.85,0,0,0-.849.849v3a.85.85,0,0,0,.849.849h9.291a.849.849,0,0,0,.848-.849v-3a.85.85,0,0,0-.848-.849Z" transform="translate(-6.228 -105.469)" fill="#e77522"/><path d="M10.663,139.073a3.787,3.787,0,0,1-1.322-.239l-3.114-1.162a3.793,3.793,0,0,1-2.389-2.847L2,124.873a3.787,3.787,0,0,1,1.212-3.512l2.492-2.2a3.771,3.771,0,0,1,6.2,2.14l2.465,13.314a3.773,3.773,0,0,1-3.706,4.459ZM8.2,119.8a2.175,2.175,0,0,0-1.444.547l-2.492,2.2h0a2.186,2.186,0,0,0-.7,2.031L5.4,134.535a2.193,2.193,0,0,0,1.383,1.647L9.9,137.344a2.182,2.182,0,0,0,2.91-2.442l-2.465-13.314A2.181,2.181,0,0,0,8.2,119.8Zm-4.461,2.152h0Z" transform="translate(-1.933 -99.212)" fill="#e77522"/><path d="M56.224,139.074a3.774,3.774,0,0,1-3.706-4.461L54.983,121.3a3.771,3.771,0,0,1,6.2-2.14l2.492,2.2a3.791,3.791,0,0,1,1.212,3.512l-1.843,9.951a3.793,3.793,0,0,1-2.39,2.847l-3.113,1.162A3.773,3.773,0,0,1,56.224,139.074ZM58.691,119.8a2.181,2.181,0,0,0-2.146,1.784L54.081,134.9a2.182,2.182,0,0,0,2.909,2.442l3.114-1.162a2.191,2.191,0,0,0,1.382-1.647l1.843-9.95a2.191,2.191,0,0,0-.7-2.032h0l-2.491-2.2A2.177,2.177,0,0,0,58.691,119.8Z" transform="translate(-10.953 -99.212)" fill="#e77522"/></g><path d="M26.436,118.347a.359.359,0,0,0-.006.441,3.284,3.284,0,0,0,2.594,1.087,4.649,4.649,0,0,0,2.283-.786,4.4,4.4,0,0,1,2.15-.749,4.08,4.08,0,0,1,2.1.793,4.469,4.469,0,0,0,2.331.858,3.066,3.066,0,0,0,2.613-1.22.358.358,0,0,0-.022-.416,9.035,9.035,0,0,0-14.045-.007Z" transform="translate(1547.705 6649.66)" fill="#f2631e"/><path d="M27.441,128.435,24.56,121.99a9.036,9.036,0,0,0,7.018,12.168.354.354,0,0,0,.384-.214,3.288,3.288,0,0,0-.357-2.8,4.682,4.682,0,0,0-1.823-1.581,4.382,4.382,0,0,1-1.724-1.487h0a4.066,4.066,0,0,1-.364-2.216,4.468,4.468,0,0,0-.422-2.45,3.066,3.066,0,0,0-2.366-1.653A.356.356,0,0,0,24.56,121.99Z" transform="translate(1548.135 6648.453)" fill="#f2631e"/><path d="M43.274,121.8a3.3,3.3,0,0,0-2.243,1.706,4.681,4.681,0,0,0-.46,2.372,4.354,4.354,0,0,1-.425,2.234,4.037,4.037,0,0,1-1.737,1.424,4.47,4.47,0,0,0-1.91,1.59,3.429,3.429,0,0,0-.49,1.727A2.626,2.626,0,0,0,36.25,134a.357.357,0,0,0,.374.185,9.043,9.043,0,0,0,7.028-12.16A.357.357,0,0,0,43.274,121.8Z" transform="translate(1545.982 6648.447)" fill="#f2631e"/></g></svg>