<svg xmlns="http://www.w3.org/2000/svg" xmlns:xlink="http://www.w3.org/1999/xlink" width="54" height="54" viewBox="0 0 54 54"><defs><clipPath id="a"><rect width="54" height="54" fill="none" stroke="#f2631e" stroke-width="2"/></clipPath></defs><g clip-path="url(#a)"><path d="M29.658,3.922V19.3a2.852,2.852,0,0,1-2.852,2.852H24.9v6.261a.945.945,0,0,1-1.687.675l-6.952-6.936H4.919A2.852,2.852,0,0,1,2,19.3V3.922A2.835,2.835,0,0,1,4.919,1.071H26.857A2.852,2.852,0,0,1,29.658,3.922Z" transform="translate(1.375 0.735)" fill="none" stroke="#e76122" stroke-miterlimit="10" stroke-width="2"/><path d="M8,6.349A3.746,3.746,0,0,1,9.164,3.9a3.662,3.662,0,0,1,2.548-.861,3.864,3.864,0,0,1,2.683.911,2.919,2.919,0,0,1,1,2.211,2.767,2.767,0,0,1-.354,1.384A6.75,6.75,0,0,1,13.67,9.083a9.231,9.231,0,0,0-.911.894,2.227,2.227,0,0,0-.3.675,14.376,14.376,0,0,0-.118,1.772" transform="translate(5.5 2.088)" fill="none" stroke="#e76122" stroke-linecap="round" stroke-linejoin="round" stroke-width="2"/><line transform="translate(17.651 18.546)" fill="none" stroke="#e76122" stroke-linecap="round" stroke-linejoin="round" stroke-width="2"/><path d="M25.644,25.769A4.776,4.776,0,0,1,21,20.706V19.019a4.674,4.674,0,1,1,9.332,0v1.688a4.776,4.776,0,0,1-4.691,5.063Z" transform="translate(14.434 9.669)" fill="none" stroke="#e76122" stroke-miterlimit="10" stroke-width="2"/><path d="M25.414,37.757V29.1a22.815,22.815,0,0,1-4.657,2.329A9.855,9.855,0,0,1,16.1,29.1a33.227,33.227,0,0,1-2.784-2.413,1.688,1.688,0,0,1,1.772-2.768l4.506,1.688C21.33,23.784,23.237,21,27.743,21H35.91c4.2,0,5.889,1.688,5.889,6.936v9.821" transform="translate(8.825 14.438)" fill="none" stroke="#e76122" stroke-miterlimit="10" stroke-width="2"/><path d="M0,0V9.821" transform="translate(-95.1 -87.627)" fill="none" stroke="#f2631e" stroke-width="2"/></g></svg>