<svg xmlns="http://www.w3.org/2000/svg" xmlns:xlink="http://www.w3.org/1999/xlink" width="54" height="54" viewBox="0 0 54 54"><defs><clipPath id="a"><rect width="54" height="54" transform="translate(-21022 1639)" fill="#fff"/></clipPath></defs><g transform="translate(21022 -1639)" clip-path="url(#a)"><g transform="translate(-21022.27 1638.876)"><path d="M21.963,29.473c6.722,6.721,13.141,8.143,15.511,8.273a17.349,17.349,0,0,0,2.586-5.688,21.521,21.521,0,0,0-6.205-4.136L31.27,30.507a15.467,15.467,0,0,1-6.2-4.136,15.467,15.467,0,0,1-4.136-6.2l2.585-2.585a21.521,21.521,0,0,0-4.136-6.2,17.349,17.349,0,0,0-5.688,2.586C13.82,16.331,15.241,22.751,21.963,29.473Z" fill="none" stroke="#e86319" stroke-linecap="round" stroke-linejoin="round" stroke-width="2"/><path d="M8.133,38.906A19.419,19.419,0,0,1,1.269,24.444c0-11.775,11.52-21.32,25.731-21.32s25.731,9.545,25.731,21.32S41.211,45.764,27,45.764a30.616,30.616,0,0,1-6.922-.8c-2.6,2.336-6.678,4.7-12.752,6.177a1.372,1.372,0,0,1-1.582-1.856A36.275,36.275,0,0,0,8.133,38.906Z" fill="none" stroke="#e86319" stroke-linecap="round" stroke-linejoin="round" stroke-width="2"/></g></g></svg>