<svg xmlns="http://www.w3.org/2000/svg" width="128.399" height="127.248" viewBox="0 0 128.399 127.248"><g transform="translate(-1021.001 -1821.331)"><path d="M165.488,430.412a2.521,2.521,0,0,0-.046,3.116c.236.306,5.981,7.683,18.367,7.683,6.167,0,11.252-2.832,16.152-5.58,4.915-2.729,9.552-5.307,15.22-5.307,5.58,0,10.086,2.723,14.874,5.607C235,438.918,240.121,442,246.561,442c12.887,0,18.281-8.307,18.5-8.657a2.509,2.509,0,0,0-.169-2.932,63.943,63.943,0,0,0-99.4,0" transform="translate(870.003 1414.632)" fill="#819ab2"/><path d="M162.808,426.3a63.962,63.962,0,0,0,49.708,86.1,2.523,2.523,0,0,0,2.722-1.519c.158-.363,3.668-9.055-2.536-19.785-3.092-5.324-8.086-8.3-12.913-11.193s-9.364-5.6-12.2-10.517c-2.8-4.827-2.7-10.1-2.58-15.671.107-5.782.221-11.767-3-17.351-6.445-11.178-16.342-11.67-16.754-11.684a2.522,2.522,0,0,0-2.444,1.622m20.406,45.6" transform="translate(862.441 1435.992)" fill="#819ab2"/><path d="M241.974,424.761c-.387.066-9.661,1.363-15.865,12.082-3.081,5.353-3.162,11.174-3.245,16.8s-.164,10.92-3,15.82c-2.784,4.838-7.405,7.377-12.29,10.077-5.059,2.783-10.292,5.676-13.515,11.259a24.207,24.207,0,0,0-3.471,12.22,18.646,18.646,0,0,0,1.713,8.145,2.52,2.52,0,0,0,2.637,1.309,64,64,0,0,0,49.713-86.094,2.53,2.53,0,0,0-2.676-1.615" transform="translate(900.5 1436.075)" fill="#819ab2"/></g></svg>