<svg xmlns="http://www.w3.org/2000/svg" width="149.586" height="45.434" viewBox="0 0 149.586 45.434"><g transform="translate(-158.559 -406.699)"><path d="M165.1,414.155a.793.793,0,0,0-.014.98,7.309,7.309,0,0,0,5.775,2.416,10.339,10.339,0,0,0,5.079-1.755,9.806,9.806,0,0,1,4.786-1.669,9.066,9.066,0,0,1,4.677,1.763,9.962,9.962,0,0,0,5.19,1.909,6.824,6.824,0,0,0,5.816-2.722.789.789,0,0,0-.053-.922,20.106,20.106,0,0,0-31.255,0" transform="translate(-1.986 0)" fill="#819ab2"/><path d="M159.9,425.184a20.112,20.112,0,0,0,15.63,27.072.793.793,0,0,0,.856-.478,7.313,7.313,0,0,0-.8-6.221,10.456,10.456,0,0,0-4.06-3.52,9.738,9.738,0,0,1-3.836-3.307,9,9,0,0,1-.811-4.927,10,10,0,0,0-.944-5.456,6.8,6.8,0,0,0-5.268-3.674.793.793,0,0,0-.769.51m6.416,14.338" transform="translate(0 -5.607)" fill="#819ab2"/><path d="M206.745,424.748a7.365,7.365,0,0,0-4.989,3.8,10.417,10.417,0,0,0-1.02,5.282,9.757,9.757,0,0,1-.943,4.974,9.043,9.043,0,0,1-3.864,3.169,9.945,9.945,0,0,0-4.25,3.54,7.612,7.612,0,0,0-1.091,3.842,5.863,5.863,0,0,0,.539,2.561.792.792,0,0,0,.829.411,20.124,20.124,0,0,0,15.631-27.071.8.8,0,0,0-.842-.508" transform="translate(-9.99 -5.628)" fill="#819ab2"/><path d="M287.576,447.294h-1.013a2.1,2.1,0,0,0-.917.238,1.426,1.426,0,0,0-.508.732c0-.007-2.474,6.632-2.97,7.961l-3.754-8.931h-1.971s-3.529,8.46-3.723,8.929c-.176-.475-3.277-8.929-3.277-8.929h-2.252l4.451,12.1h2s3.6-8.6,3.785-9.041l3.789,9.041h2l4.51-12.1h-.152" transform="translate(-33.884 -12.662)" fill="#fff"/><path d="M308.1,447.586a1.044,1.044,0,0,0-.3.736v6.91c0,1.656-1.724,2.549-3.347,2.549-2.975,0-3.586-1.428-3.586-3.576v-6.912h-2.123v6.912c0,3.723,1.758,5.382,5.709,5.382a5.965,5.965,0,0,0,3.347-1v.8h2.1v-12.1h-1.1a1.022,1.022,0,0,0-.7.292" transform="translate(-43.725 -12.662)" fill="#fff"/><path d="M319.817,448.225v-1.02h-2.125v12.1h2.125v-7.446a3.131,3.131,0,0,1,3.355-3.017c2.971,0,3.578,1.383,3.578,3.458V459.3h2.1v-7.128c0-3.426-1.909-5.165-5.676-5.165a5.182,5.182,0,0,0-3.355,1.216" transform="translate(-49.636 -12.573)" fill="#fff"/><path d="M336.7,442.628a1.136,1.136,0,0,0,1.166,1.066,1.071,1.071,0,1,0,0-2.134,1.137,1.137,0,0,0-1.166,1.068" transform="translate(-55.565 -10.874)" fill="#fff"/><path d="M337.119,447.557a.944.944,0,0,0-.292.719V459.39h2.155v-12.1h-1.119a1.112,1.112,0,0,0-.745.263" transform="translate(-55.604 -12.662)" fill="#fff"/><path d="M352.618,447.5a1.252,1.252,0,0,0-.541.705c0-.009-3.067,7.159-3.628,8.483-.187-.438-3.962-9.391-3.962-9.391h-2.256s5.04,11.909,5.073,11.991c-.033.08-1.012,2.291-1.012,2.291a2,2,0,0,1-2.217,1.389l-.676-.03-.031,1.859h.936a4,4,0,0,0,3.983-2.545l6.461-14.956h-1.274a1.7,1.7,0,0,0-.856.2m-4.331,14.753" transform="translate(-57.29 -12.662)" fill="#fff"/><path d="M247.716,441.7H233.169v1.888h6.22v14.073H241.6V443.588h6.215V441.7h-.1" transform="translate(-23.272 -10.917)" fill="#fff"/><path d="M369.02,459.31h1.92v-8.78c0-2.341-2.444-3.566-4.853-3.566-2.722,0-4.523,1.029-5.211,2.97l-.04.1,1.943.625.036-.1a3.11,3.11,0,0,1,3.213-1.768c1.354,0,2.811.54,2.811,1.733v1.194a2.2,2.2,0,0,1-1.354.372h-2.4c-2.449-.035-4.731,1.272-4.731,3.693,0,2.311,2.408,3.693,4.731,3.693a8.061,8.061,0,0,0,3.943-.943c-.008-.005-.008.738-.008.771m-.179-3.346a1.3,1.3,0,0,1-.405.922,4.944,4.944,0,0,1-3.351.784c-1.252,0-2.607-.721-2.607-1.881,0-1.21,1.341-1.96,2.582-1.96h2.6a3.208,3.208,0,0,0,1.18-.228Z" transform="translate(-62.943 -12.559)" fill="#fff"/><path d="M259.745,459.31h1.919v-8.78c0-2.341-2.443-3.566-4.854-3.566-2.721,0-4.521,1.029-5.209,2.97l-.041.1,1.942.625.037-.1a3.11,3.11,0,0,1,3.213-1.768c1.353,0,2.811.54,2.811,1.733v1.194a2.2,2.2,0,0,1-1.355.372h-2.4c-2.449-.035-4.731,1.272-4.731,3.693,0,2.311,2.408,3.693,4.731,3.693a8.057,8.057,0,0,0,3.943-.943c-.005-.005-.005.738-.005.771m-.18-3.346a1.3,1.3,0,0,1-.407.922,4.94,4.94,0,0,1-3.35.784c-1.25,0-2.606-.721-2.606-1.881,0-1.21,1.341-1.96,2.583-1.96h2.6a3.206,3.206,0,0,0,1.181-.228Z" transform="translate(-28.858 -12.559)" fill="#fff"/><path d="M237.338,409.032a1.071,1.071,0,1,0,0-2.134,1.071,1.071,0,1,0,0,2.134m3.274,0a1.072,1.072,0,1,0,0-2.134,1.071,1.071,0,1,0,0,2.134Zm13.281,15.627a1.071,1.071,0,1,0,0,2.133,1.071,1.071,0,1,0,0-2.133Zm60.884-13.908a1.071,1.071,0,1,0,0-2.133,1.071,1.071,0,1,0,0,2.133ZM325,407.3a.94.94,0,0,0-.293.72l0,11.3a1.739,1.739,0,0,1-1.977,1.662v0l-6.493,0a1.76,1.76,0,0,1-1.993-1.771h-.005V412.6h-1.118a1.109,1.109,0,0,0-.745.263.94.94,0,0,0-.291.719l0,5.613c0,1.085-1.034,1.737-2.185,1.766h-8.827a1.068,1.068,0,0,1-.768-.313l4.731-4.866s-1.512-3.271-6.6-3.271c-5.4,0-6.192,3.584-4.792,4.952,1.327,1.3,3.548,3.07,3.57,3.091-.467.476-1.77.344-4.031.344l-5.826.008c-1.9,0-1.811-2.015-1.811-2.015v-11.9h-1.118a1.1,1.1,0,0,0-.745.263.934.934,0,0,0-.293.718v11.794a3.172,3.172,0,0,0,3.193,3.16h9.577a4.109,4.109,0,0,0,2.732-.914,3.6,3.6,0,0,0,2.64.914l8.348-.01c2.005,0,2.533-.255,3.289-.954l0,.005a4.253,4.253,0,0,0,2.951.961l6.741,0c2.587,0,4-1.409,4-3.722v-12.16h-1.106A1.1,1.1,0,0,0,325,407.3Zm-26.275,12.24s-2.665-2.15-3.22-2.661c-.884-.816-.894-2.794,3.119-2.794a4.962,4.962,0,0,1,3.872,1.653Zm30.439-12.524v15.891h2.254V407.016Zm-52.608,5.554a4.991,4.991,0,0,0-3.232,1.128,5.636,5.636,0,0,0-.636,7.73,4.279,4.279,0,0,0,3.394,1.473h2.513a4.694,4.694,0,0,1-2.089,2.326,11.574,11.574,0,0,1-3.863,1.31l.868,1.863a9.761,9.761,0,0,0,5.64-2.685,6.874,6.874,0,0,0,2-5.487v-3.193C281.153,414.07,279.688,412.57,276.556,412.57Zm-.31,8.353c-1.615,0-2.741-1.316-2.741-3.2a3.751,3.751,0,0,1,.954-2.661,2.67,2.67,0,0,1,2.051-.9,2.147,2.147,0,0,1,2.459,2.266s.054,3.968.062,4.5Zm-8.048-12.3a1.071,1.071,0,1,0,0,2.133,1.071,1.071,0,1,0,0-2.133Zm-.8,4.23a.94.94,0,0,0-.292.719l0,5.613c0,1.111-.769,1.742-1.964,1.742l-.014,0-6.562.015c-1.2,0-1.965-.633-1.965-1.744h0v-8.371h-2.15l-.005,8.452a1.74,1.74,0,0,1-1.977,1.662l-6.569.02c-1.572,0-1.934-.608-1.977-1.66l.007-8.474H241.8l-.005.96c-.2.332-.806.39-1.408.39h-2.467c-3.445.029-4.789,1.909-4.746,4.232.043,2.374,1.988,3.768,4.517,3.947,2.913.207,4.11-.74,4.11-.74v.032s-.114,3.277,2.937,3.277h7.83a3.9,3.9,0,0,0,3.027-.977,4.044,4.044,0,0,0,2.874.961l6.775.007c2.586,0,4.023-1.4,4.023-3.709l0-6.618h-1.119A1.109,1.109,0,0,0,267.4,412.848ZM241.776,416.6a1.82,1.82,0,0,1-.417,1.09,5.059,5.059,0,0,1-3.639.815c-1.28-.12-2.481-.8-2.481-1.99,0-1.242.377-2.508,2.654-2.558h2.67c.369,0,.985-.018,1.213-.288Zm15.39,8.058a1.071,1.071,0,1,0,0,2.133,1.071,1.071,0,1,0,0-2.133Z" transform="translate(-23.272 -0.062)" fill="#fff"/><path d="M346.479,411.531a1.071,1.071,0,1,0,0-2.133,1.071,1.071,0,1,0,0,2.133" transform="translate(-58.252 -0.842)" fill="#fff"/></g></svg>