<svg xmlns="http://www.w3.org/2000/svg" width="24.1" height="25.5" viewBox="0 0 24.1 25.5">
  <g id="Group_40" data-name="Group 40" transform="translate(0)">
    <g id="Group_39" data-name="Group 39">
      <path id="Path_489" data-name="Path 489" d="M79.834,14.3c3.572,0,6.449-4.294,6.449-7.849a6.449,6.449,0,0,0-12.9,0C73.385,10,76.262,14.3,79.834,14.3Zm0-12.6a4.757,4.757,0,0,1,4.752,4.752c0,2.712-2.237,6.152-4.752,6.152s-4.752-3.44-4.752-6.152A4.757,4.757,0,0,1,79.834,1.7Z" transform="translate(-67.784)" fill="#fff"/>
      <path id="Path_490" data-name="Path 490" d="M32.242,188.5l-.33-1.983a8.5,8.5,0,0,0-8.413-7.127H16.909A8.5,8.5,0,0,0,8.5,186.513l-.33,1.983a.849.849,0,0,0,.837.988H31.4a.849.849,0,0,0,.837-.988Zm-11.052-7.413-.986.838-.986-.838Zm6.863,6.7v-1.952a.849.849,0,1,0-1.7,0v1.952h-12.3v-1.952a.849.849,0,1,0-1.7,0v1.952H10l.166-.995a6.809,6.809,0,0,1,6.435-5.7l3.049,2.591a.849.849,0,0,0,1.1,0L23.8,181.09a6.809,6.809,0,0,1,6.435,5.7l.166,1Z" transform="translate(-8.153 -163.984)" fill="#fff"/>
    </g>
  </g>
</svg>
