<svg xmlns="http://www.w3.org/2000/svg" width="48" height="48" viewBox="0 0 48 48"><g transform="translate(-412 -342)"><circle cx="24" cy="24" r="24" transform="translate(412 342)" fill="#819ab2"/><g transform="translate(425 355)"><path d="M0,4.571V17.429A4.571,4.571,0,0,0,4.571,22H17.429A4.571,4.571,0,0,0,22,17.429V4.571A4.571,4.571,0,0,0,17.429,0H4.571A4.571,4.571,0,0,0,0,4.571ZM13.33,17.233A6.672,6.672,0,0,1,4.767,8.67a6.312,6.312,0,0,1,3.9-3.9,6.672,6.672,0,0,1,8.564,8.564A6.311,6.311,0,0,1,13.33,17.233Zm5.3-12.886a.86.86,0,0,1-1.507.407.522.522,0,0,1-.045-.059.861.861,0,0,1-.034-.914.855.855,0,0,1,1.167-.313.861.861,0,0,1,.428.808A.529.529,0,0,1,18.634,4.348Zm0,0" fill="#ecf2f5"/><path d="M169.868,164.523a5.345,5.345,0,1,0,5.345,5.345A5.35,5.35,0,0,0,169.868,164.523Zm0,0" transform="translate(-158.868 -158.868)" fill="#ecf2f5"/></g></g></svg>