<svg xmlns="http://www.w3.org/2000/svg" width="48" height="48" viewBox="0 0 48 48"><g transform="translate(-276 -342)"><circle cx="24" cy="24" r="24" transform="translate(276 342)" fill="#819ab2"/><g transform="translate(289 355)"><path d="M22.7,22.631h.006V14.562c0-3.947-.85-6.988-5.464-6.988a4.79,4.79,0,0,0-4.315,2.371h-.064v-2H8.489V22.63h4.556V15.357c0-1.915.363-3.767,2.734-3.767,2.337,0,2.371,2.185,2.371,3.889v7.151Z" transform="translate(-0.707 -0.631)" fill="#ecf2f5"/><path d="M.4,7.977H4.957V22.665H.4Z" transform="translate(-0.033 -0.665)" fill="#ecf2f5"/><path d="M2.642,0A2.654,2.654,0,1,0,5.284,2.642,2.643,2.643,0,0,0,2.642,0Z" fill="#ecf2f5"/></g></g></svg>