<svg id="Component_219_47" data-name="Component 219 – 47" xmlns="http://www.w3.org/2000/svg" xmlns:xlink="http://www.w3.org/1999/xlink" width="70" height="70" viewBox="0 0 70 70">
  <defs>
    <clipPath id="clip-path">
      <rect id="Rectangle_3841" data-name="Rectangle 3841" width="70" height="70" transform="translate(-21082 -1858)" fill="#fff"/>
    </clipPath>
  </defs>
  <g id="Mask_Group_21" data-name="Mask Group 21" transform="translate(21082 1858)" clip-path="url(#clip-path)">
    <g id="Group_5188" data-name="Group 5188" transform="translate(-21082.221 -1858.251)">
      <g id="MY_CARS" data-name="MY CARS">
        <g id="Group_5186" data-name="Group 5186">
          <g id="Group_5185" data-name="Group 5185">
            <g id="Group_5184" data-name="Group 5184">
              <path id="Path_6354" data-name="Path 6354" d="M30.414,37.495c3.039,0,4.094-.734,5.115-1.442.231-.16.465-.324.737-.481,2.765-1.591,4.692-4.482,5.593-8.381.093-.03.192-.067.3-.111a.9.9,0,0,0-.7-1.66,1.788,1.788,0,0,1-.448.131.917.917,0,0,0-.794.718c-.513,2.555-1.771,5.973-4.85,7.743-.319.185-.6.375-.865.563-.9.625-1.613,1.119-4.085,1.119h-.041c-2.506-.005-3.219-.505-4.121-1.137-.27-.189-.545-.381-.862-.565-3.073-1.787-4.316-5.208-4.818-7.765a.9.9,0,0,0-.8-.724h0a1.882,1.882,0,0,1-.434-.131.9.9,0,0,0-.7,1.657c.1.044.2.081.3.112.884,3.9,2.8,6.8,5.559,8.406.27.157.5.323.734.484,1.022.715,2.079,1.457,5.15,1.464Z" fill="#679ab4"/>
              <path id="Path_6355" data-name="Path 6355" d="M37.991,39.287a.657.657,0,0,0,.076,0,.9.9,0,0,0,.822-.972c-.139-1.663-.359-4.462-.358-4.89a.9.9,0,0,0-.9-.9.874.874,0,0,0-.9.9c0,.645.326,4.6.363,5.044A.9.9,0,0,0,37.991,39.287Z" fill="#679ab4"/>
              <path id="Path_6356" data-name="Path 6356" d="M22.912,39.188a.9.9,0,0,0,.9-.855c.009-.175.218-4.3.22-4.943a.9.9,0,0,0-.9-.9h0a.9.9,0,0,0-.9.9c0,.495-.158,3.673-.218,4.856a.9.9,0,0,0,.853.944Z" fill="#679ab4"/>
              <path id="Path_6357" data-name="Path 6357" d="M3.12,66.767a.9.9,0,0,0,.9-.9l.02-9.392c.011-5.033.02-8.969,7.119-10.666A32.75,32.75,0,0,0,20.091,42.5a.9.9,0,0,0-.423-1.69h-.009a.9.9,0,0,0-.463.129,31.425,31.425,0,0,1-8.457,3.122c-8.477,2.026-8.488,7.517-8.5,12.36l-.02,9.444a.9.9,0,0,0,.9.9Z" fill="#679ab4"/>
              <path id="Path_6358" data-name="Path 6358" d="M47.761,38.424a.9.9,0,0,0,.78-1.346c-1.154-2.021-2.117-3.579-2.89-4.832-3.149-5.1-3.479-5.629-3.457-15.567a3.2,3.2,0,0,0-1.778-2.624,8.021,8.021,0,0,0-4.1-1.008H36.3a13.777,13.777,0,0,0-3.259.485,11.5,11.5,0,0,1-2.6.408h-.01a11.336,11.336,0,0,1-2.616-.42,13.816,13.816,0,0,0-3.273-.5H24.51c-3.67,0-5.866,1.831-5.87,3.606-.022,9.938-.353,10.469-3.524,15.553-.779,1.248-1.749,2.8-2.912,4.817a.9.9,0,1,0,1.559.9c1.148-1.988,2.108-3.528,2.88-4.766,3.271-5.244,3.774-6.051,3.8-16.5,0-.635,1.4-1.859,4.09-1.809a12.145,12.145,0,0,1,2.858.448,13.055,13.055,0,0,0,3.031.47h.014a13.05,13.05,0,0,0,3.016-.457,12.272,12.272,0,0,1,2.848-.436h.015a6.317,6.317,0,0,1,3.177.75c.668.4.905.831.905,1.077-.023,10.451.476,11.259,3.725,16.518.766,1.24,1.72,2.784,2.86,4.777A.9.9,0,0,0,47.761,38.424Z" fill="#679ab4"/>
              <path id="Path_6359" data-name="Path 6359" d="M42.219,8.513a.886.886,0,0,0,.465-.131.9.9,0,0,0,.306-1.231c-.145-.24-3.637-5.88-12.54-5.9H30.4c-8.87,0-12.374,5.607-12.519,5.846a.9.9,0,0,0,1.537.936c.134-.216,3.18-4.981,10.982-4.981h.042c7.845.017,10.877,4.824,11,5.029A.9.9,0,0,0,42.219,8.513Z" fill="#679ab4"/>
              <path id="Path_6360" data-name="Path 6360" d="M41.05,12.066a51.164,51.164,0,0,0-10.622-.857h-.221A50.578,50.578,0,0,0,19.8,12.02a4.916,4.916,0,0,1-.873.128h0a3.1,3.1,0,0,1-2.207-.762,2.692,2.692,0,0,1-.782-2.015c0-1.707,2.157-2.559,2.4-2.65a.863.863,0,0,1,.219-.052C20.2,6.5,21.35,6.35,22.3,6.23a49.951,49.951,0,0,1,8.141-.446,49.286,49.286,0,0,1,8.141.481c.949.124,2.1.274,3.736.455a.883.883,0,0,1,.22.053c.245.093,2.394.954,2.39,2.661a2.678,2.678,0,0,1-2.99,2.764A3.5,3.5,0,0,1,41.05,12.066Zm-2.7-4.017a47.516,47.516,0,0,0-7.912-.465,45.81,45.81,0,0,0-7.911.431c-.934.118-2.065.262-3.652.431-.536.227-1.135.669-1.136.929a.943.943,0,0,0,.225.707,1.412,1.412,0,0,0,.957.266c.108-.007.281-.045.539-.095a56.423,56.423,0,0,1,10.974-.844A52.772,52.772,0,0,1,41.4,10.3c.258.052.431.091.529.1h.008c1.1,0,1.189-.5,1.19-.967,0-.262-.6-.706-1.132-.934C40.41,8.32,39.281,8.171,38.348,8.049Z" fill="#679ab4"/>
              <path id="Path_6361" data-name="Path 6361" d="M48.811,45.677a.9.9,0,0,0,.9-.9c.008-3.7-1.036-7.456-2.047-11.088C46.7,30.238,45.8,26.976,45.8,23.937c.009-3.761-.324-10.822-1.624-13.435a.9.9,0,0,0-1.611.8c.946,1.9,1.446,7.926,1.436,12.628-.007,3.286.932,6.664,1.927,10.24.978,3.515,1.989,7.149,1.981,10.6a.9.9,0,0,0,.9.9Z" fill="#679ab4"/>
              <path id="Path_6362" data-name="Path 6362" d="M11.9,45.6a.9.9,0,0,0,.9-.9c.007-3.454,1.034-7.083,2.027-10.594,1.01-3.571,1.964-6.944,1.971-10.232.01-4.7.537-10.724,1.491-12.623a.9.9,0,0,0-1.609-.808C15.371,13.049,15.008,20.11,15,23.871c-.006,3.039-.927,6.3-1.9,9.746C12.07,37.244,11.009,40.995,11,44.7a.9.9,0,0,0,.9.9Z" fill="#679ab4"/>
              <path id="Path_6363" data-name="Path 6363" d="M40.64,41.88a.9.9,0,0,0,.808-1.3L40.242,38.03a.9.9,0,1,0-1.616.791l1.206,2.554A.9.9,0,0,0,40.64,41.88Z" fill="#679ab4"/>
              <path id="Path_6364" data-name="Path 6364" d="M19.658,42.613a.9.9,0,0,0,.808-.5l1.647-3.326a.9.9,0,1,0-1.614-.8l-1.647,3.326a.9.9,0,0,0,.806,1.3Z" fill="#679ab4"/>
              <path id="Path_6365" data-name="Path 6365" d="M39.434,39.326a.9.9,0,0,0,0-1.8l-18.128-.039h0a.9.9,0,0,0,0,1.8l18.128.039Z" fill="#679ab4"/>
              <path id="Path_6366" data-name="Path 6366" d="M29.982,54.988a.9.9,0,0,0,.9-.9l.033-15.4a.9.9,0,0,0-.9-.9h0a.9.9,0,0,0-.9.9l-.033,15.4a.9.9,0,0,0,.9.9Z" fill="#679ab4"/>
            </g>
          </g>
          <path id="Path_6367" data-name="Path 6367" d="M55.367,40.584" fill="#fcf0e6"/>
          <path id="Path_6368" data-name="Path 6368" d="M55.736,40.165" fill="#fcf0e6"/>
        </g>
      </g>
      <g id="icons">
        <g id="Group_5187" data-name="Group 5187">
          <path id="Path_6369" data-name="Path 6369" d="M57.553,68.5H38.239a.976.976,0,0,1-.976-.976V45.392a.977.977,0,0,1,.976-.977H57.553a.977.977,0,0,1,.976.977v8.835H56.577V46.368H39.215V66.542H56.577V60.17h1.952v7.349A.976.976,0,0,1,57.553,68.5Z" fill="#e77522"/>
          <path id="Path_6370" data-name="Path 6370" d="M62.7,63.831,61.319,62.45,66.571,57.2l-5.252-5.252L62.7,50.565l5.943,5.943a.979.979,0,0,1,0,1.381Z" fill="#e77522"/>
          <rect id="Rectangle_3834" data-name="Rectangle 3834" width="17.828" height="1.953" transform="translate(50.125 56.222)" fill="#e77522"/>
        </g>
      </g>
    </g>
  </g>
</svg>
