<svg xmlns="http://www.w3.org/2000/svg" width="151.45" height="46" viewBox="0 0 151.45 46">
  <g id="Group_2629" data-name="Group 2629" transform="translate(-19 -13.908)">
    <g id="Group_2628" data-name="Group 2628" transform="translate(19 13.908)">
      <path id="Path_1587" data-name="Path 1587" d="M165.1,414.248a.8.8,0,0,0-.015.992,7.4,7.4,0,0,0,5.847,2.446,10.468,10.468,0,0,0,5.142-1.776,9.929,9.929,0,0,1,4.845-1.689A9.179,9.179,0,0,1,185.659,416a10.086,10.086,0,0,0,5.255,1.933,6.909,6.909,0,0,0,5.889-2.756.8.8,0,0,0-.054-.933,20.356,20.356,0,0,0-31.645,0" transform="translate(-160.49 -406.699)" fill="#fff"/>
      <path id="Path_1588" data-name="Path 1588" d="M159.912,425.19A20.362,20.362,0,0,0,175.737,452.6a.8.8,0,0,0,.867-.483,7.4,7.4,0,0,0-.807-6.3,10.586,10.586,0,0,0-4.111-3.563,9.859,9.859,0,0,1-3.884-3.348,9.107,9.107,0,0,1-.821-4.989,10.12,10.12,0,0,0-.956-5.524,6.889,6.889,0,0,0-5.334-3.719.8.8,0,0,0-.778.516m6.5,14.517" transform="translate(-158.559 -412.151)" fill="#fff"/>
      <path id="Path_1589" data-name="Path 1589" d="M206.946,424.748a7.456,7.456,0,0,0-5.051,3.846,10.547,10.547,0,0,0-1.033,5.348,9.878,9.878,0,0,1-.955,5.036,9.156,9.156,0,0,1-3.912,3.208,10.07,10.07,0,0,0-4.3,3.584,7.706,7.706,0,0,0-1.1,3.89,5.936,5.936,0,0,0,.545,2.593.8.8,0,0,0,.839.417A20.375,20.375,0,0,0,207.8,425.263a.806.806,0,0,0-.852-.514" transform="translate(-168.275 -412.172)" fill="#fff"/>
      <path id="Path_1590" data-name="Path 1590" d="M287.83,447.294H286.8a2.121,2.121,0,0,0-.928.241,1.443,1.443,0,0,0-.515.741c0-.007-2.5,6.715-3.007,8.06l-3.8-9.043h-2s-3.572,8.565-3.77,9.04c-.178-.481-3.318-9.04-3.318-9.04h-2.28l4.507,12.247h2.024s3.648-8.707,3.832-9.153l3.837,9.153h2.026l4.567-12.247h-.154" transform="translate(-191.512 -419.013)" fill="#fff"/>
      <path id="Path_1591" data-name="Path 1591" d="M308.212,447.589a1.057,1.057,0,0,0-.3.745v7c0,1.676-1.746,2.581-3.388,2.581-3.012,0-3.63-1.446-3.63-3.621v-7h-2.15v7c0,3.769,1.78,5.449,5.78,5.449a6.039,6.039,0,0,0,3.388-1.009v.81h2.127V447.294H308.92a1.035,1.035,0,0,0-.708.3" transform="translate(-201.082 -419.013)" fill="#fff"/>
      <path id="Path_1592" data-name="Path 1592" d="M319.843,448.24v-1.032h-2.151v12.247h2.151v-7.539a3.17,3.17,0,0,1,3.4-3.055c3.008,0,3.623,1.4,3.623,3.5v7.093h2.124v-7.217c0-3.469-1.933-5.229-5.747-5.229a5.246,5.246,0,0,0-3.4,1.231" transform="translate(-206.831 -418.927)" fill="#fff"/>
      <path id="Path_1593" data-name="Path 1593" d="M336.7,442.641a1.15,1.15,0,0,0,1.18,1.079,1.085,1.085,0,1,0,0-2.16,1.151,1.151,0,0,0-1.18,1.081" transform="translate(-212.596 -417.274)" fill="#fff"/>
      <path id="Path_1594" data-name="Path 1594" d="M337.123,447.561a.956.956,0,0,0-.3.728v11.252h2.182V447.294h-1.133a1.126,1.126,0,0,0-.754.267" transform="translate(-212.635 -419.013)" fill="#fff"/>
      <path id="Path_1595" data-name="Path 1595" d="M352.748,447.5a1.268,1.268,0,0,0-.548.714c0-.009-3.1,7.249-3.673,8.588-.19-.443-4.011-9.508-4.011-9.508h-2.284s5.1,12.057,5.136,12.14c-.033.081-1.025,2.32-1.025,2.32a2.024,2.024,0,0,1-2.245,1.407l-.684-.03-.031,1.882h.948a4.051,4.051,0,0,0,4.032-2.576l6.542-15.143h-1.29a1.72,1.72,0,0,0-.867.205m-4.385,14.937" transform="translate(-214.275 -419.013)" fill="#fff"/>
      <path id="Path_1596" data-name="Path 1596" d="M247.9,441.7H233.169v1.912h6.3V457.86h2.244V443.612H248V441.7H247.9" transform="translate(-181.192 -417.316)" fill="#fff"/>
      <path id="Path_1597" data-name="Path 1597" d="M369.128,459.464h1.944v-8.889c0-2.37-2.475-3.611-4.914-3.611-2.756,0-4.579,1.042-5.276,3.007l-.04.105,1.967.633.037-.1c.533-1.48,2.063-1.79,3.253-1.79,1.371,0,2.847.547,2.847,1.755v1.209a2.227,2.227,0,0,1-1.371.377h-2.432c-2.479-.036-4.79,1.287-4.79,3.739,0,2.34,2.438,3.739,4.79,3.739a8.162,8.162,0,0,0,3.992-.955c-.008-.006-.008.747-.008.781m-.181-3.388a1.32,1.32,0,0,1-.41.934,5.006,5.006,0,0,1-3.393.794c-1.267,0-2.64-.73-2.64-1.9,0-1.225,1.358-1.984,2.615-1.984h2.633a3.249,3.249,0,0,0,1.195-.231Z" transform="translate(-219.772 -418.913)" fill="#fff"/>
      <path id="Path_1598" data-name="Path 1598" d="M259.853,459.464H261.8v-8.889c0-2.37-2.474-3.611-4.915-3.611-2.755,0-4.578,1.042-5.274,3.007l-.041.105,1.967.633.038-.1c.532-1.48,2.063-1.79,3.253-1.79,1.37,0,2.847.547,2.847,1.755v1.209a2.228,2.228,0,0,1-1.372.377h-2.432c-2.479-.036-4.79,1.287-4.79,3.739,0,2.34,2.438,3.739,4.79,3.739a8.157,8.157,0,0,0,3.992-.955c-.006-.006-.006.747-.006.781m-.183-3.388a1.313,1.313,0,0,1-.412.934,5,5,0,0,1-3.392.794c-1.266,0-2.639-.73-2.639-1.9,0-1.225,1.358-1.984,2.615-1.984h2.632a3.247,3.247,0,0,0,1.2-.231Z" transform="translate(-186.624 -418.913)" fill="#fff"/>
      <path id="Path_1599" data-name="Path 1599" d="M237.39,409.058a1.085,1.085,0,1,0,0-2.16,1.084,1.084,0,1,0,0,2.16m3.315,0a1.085,1.085,0,1,0,0-2.16,1.084,1.084,0,1,0,0,2.16ZM254.15,424.88a1.084,1.084,0,1,0,0,2.16,1.084,1.084,0,1,0,0-2.16ZM315.793,410.8a1.084,1.084,0,1,0,0-2.16,1.084,1.084,0,1,0,0,2.16Zm10.352-3.494a.952.952,0,0,0-.3.729l0,11.438a1.76,1.76,0,0,1-2,1.683v0l-6.574,0a1.782,1.782,0,0,1-2.018-1.793h-.006v-6.7h-1.132a1.123,1.123,0,0,0-.754.266.952.952,0,0,0-.295.728l0,5.683c0,1.1-1.047,1.758-2.212,1.788h-8.937a1.081,1.081,0,0,1-.777-.317l4.79-4.927s-1.531-3.312-6.687-3.312c-5.465,0-6.269,3.629-4.851,5.014,1.343,1.312,3.592,3.108,3.614,3.129-.473.482-1.792.348-4.081.348l-5.9.008c-1.92,0-1.834-2.04-1.834-2.04V406.989h-1.132a1.116,1.116,0,0,0-.754.267.946.946,0,0,0-.3.727v11.941a3.212,3.212,0,0,0,3.233,3.2h9.7a4.16,4.16,0,0,0,2.766-.926,3.649,3.649,0,0,0,2.673.926l8.452-.01c2.03,0,2.564-.258,3.33-.966l0,.006a4.306,4.306,0,0,0,2.988.973l6.825,0c2.619,0,4.048-1.426,4.048-3.768V407.039H326.9A1.118,1.118,0,0,0,326.144,407.3Zm-26.6,12.393s-2.7-2.176-3.26-2.694c-.9-.826-.9-2.828,3.158-2.828a5.024,5.024,0,0,1,3.92,1.673Zm30.818-12.681v16.089h2.282V407.017ZM277.1,412.641a5.053,5.053,0,0,0-3.272,1.142,5.706,5.706,0,0,0-.644,7.826,4.332,4.332,0,0,0,3.436,1.491h2.544a4.752,4.752,0,0,1-2.115,2.355,11.717,11.717,0,0,1-3.911,1.326l.879,1.886a9.882,9.882,0,0,0,5.711-2.718,6.96,6.96,0,0,0,2.027-5.555v-3.233C281.751,414.159,280.268,412.641,277.1,412.641Zm-.314,8.457c-1.635,0-2.775-1.332-2.775-3.242a3.8,3.8,0,0,1,.966-2.694,2.7,2.7,0,0,1,2.076-.911,2.174,2.174,0,0,1,2.49,2.294s.054,4.018.063,4.552Zm-8.149-12.458a1.084,1.084,0,1,0,0,2.16,1.084,1.084,0,1,0,0-2.16Zm-.805,4.282a.951.951,0,0,0-.3.728l0,5.683c0,1.124-.778,1.764-1.989,1.764l-.014,0-6.644.015c-1.212,0-1.99-.641-1.99-1.765h0v-8.475h-2.177l-.006,8.558a1.761,1.761,0,0,1-2,1.683l-6.651.02c-1.591,0-1.958-.615-2-1.681l.007-8.58H241.9l-.006.972c-.2.336-.816.395-1.425.395h-2.5c-3.487.029-4.849,1.932-4.8,4.284.043,2.4,2.013,3.815,4.573,4,2.949.21,4.161-.75,4.161-.75v.033s-.116,3.317,2.973,3.317h7.928a3.952,3.952,0,0,0,3.065-.989,4.1,4.1,0,0,0,2.91.973l6.859.007c2.618,0,4.073-1.414,4.073-3.756l0-6.7h-1.133A1.122,1.122,0,0,0,267.828,412.922Zm-25.945,3.8a1.842,1.842,0,0,1-.422,1.1,5.122,5.122,0,0,1-3.684.825c-1.3-.121-2.512-.808-2.512-2.015,0-1.258.382-2.539,2.687-2.59h2.7c.373,0,1-.018,1.228-.292Zm15.582,8.159a1.084,1.084,0,1,0,0,2.16,1.084,1.084,0,1,0,0-2.16Z" transform="translate(-181.192 -406.759)" fill="#fff"/>
      <path id="Path_1600" data-name="Path 1600" d="M346.493,411.558a1.084,1.084,0,1,0,0-2.16,1.084,1.084,0,1,0,0,2.16" transform="translate(-215.21 -407.518)" fill="#fff"/>
    </g>
  </g>
</svg>
