<svg xmlns="http://www.w3.org/2000/svg" xmlns:xlink="http://www.w3.org/1999/xlink" width="860" height="613" viewBox="0 0 860 613"><defs><clipPath id="a"><rect width="860" height="613" transform="translate(1060 7597)" fill="#fff" stroke="#707070" stroke-width="1"/></clipPath></defs><g transform="translate(-1060 -7597)" clip-path="url(#a)"><g transform="translate(919.934 517.765)" opacity="0.1"><path d="M191.326,437.189C138,577.065,150.235,731.386,224.569,860.446c74.6,129.127,202.094,216.842,350.07,240.67a19.459,19.459,0,0,0,20.993-11.71c1.215-2.8,28.282-69.828-19.559-152.567-23.844-41.056-62.352-64.039-99.578-86.316-37.142-22.174-72.208-43.166-94.078-81.1-21.583-37.226-20.79-77.86-19.9-120.841.826-44.586,1.7-90.737-23.153-133.8-49.7-86.2-126.022-89.994-129.195-90.094a19.446,19.446,0,0,0-18.849,12.5m157.359,351.64" transform="translate(-18.56 6958.65)" fill="#819ab2"/><path d="M169.262,589.557a19.44,19.44,0,0,0-.355,24.031c1.823,2.362,46.12,59.247,141.631,59.247,47.553,0,86.771-21.836,124.554-43.03,37.9-21.044,73.659-40.922,117.365-40.922,43.032,0,77.777,20.993,114.7,43.233,38.154,23.035,77.625,46.811,127.287,46.811,99.376,0,140.974-64.057,142.644-66.757a19.354,19.354,0,0,0-1.3-22.612C841.374,473.322,701.582,406.7,552.458,406.7c-149.005,0-288.78,66.623-383.2,182.858" transform="translate(82.495 6673.301)" fill="#819ab2"/><path d="M586.844,424.885c-2.987.505-74.5,10.512-122.344,93.167-23.759,41.275-24.384,86.163-25.024,129.532-.676,43.284-1.266,84.205-23.136,121.986-21.465,37.312-57.1,56.885-94.769,77.71-39.015,21.466-79.363,43.776-104.219,86.822-20.588,35.556-26.764,68.124-26.764,94.23,0,37.076,12.352,61.1,13.213,62.807a19.431,19.431,0,0,0,20.334,10.093C371.958,1077.508,499.55,989.74,574,860.6c74.621-128.925,86.8-283.247,33.48-423.259a19.511,19.511,0,0,0-20.638-12.453" transform="translate(489.887 6959.736)" fill="#819ab2"/></g></g></svg>